<svg xmlns="http://www.w3.org/2000/svg" viewBox="0 0 177.63 117.78"><defs><style>.cls-1,.cls-2,.cls-3{fill:#fafafa;}.cls-1,.cls-3{stroke:#fafafa;stroke-miterlimit:10;}.cls-1{stroke-width:0.5px;}</style></defs><g id="katman_2" data-name="katman 2"><g id="www.VektorelCizim.net"><path class="cls-1" d="M134.24,46.55s-.69.67-1.09,1-.5.48-.51.89-.06.89.49.49a11.59,11.59,0,0,0,1.73-1.7c0-.13.23-.38.06-.57s-.46-.37-.68-.12"/><path class="cls-1" d="M134.15,49.29s-.72.63-1.14,1-.52.45-.56.85-.12.89.45.52a9.94,9.94,0,0,0,1.82-1.6c.06-.12.26-.35.09-.55s-.43-.41-.66-.17"/><path class="cls-1" d="M133.89,52s-.75.59-1.18.88-.56.42-.63.82-.16.88.43.55c.29-.17.76-.5,1.17-.81a5.45,5.45,0,0,0,.75-.68c.06-.12.27-.34.11-.55s-.41-.43-.65-.21"/><path class="cls-1" d="M133.48,54.74,133,55c-.25.17-.55.37-.79.5-.46.26-.59.38-.68.78s-.2.87.4.57a11.26,11.26,0,0,0,2-1.36c.07-.12.29-.33.15-.55s-.39-.45-.64-.24"/><path class="cls-1" d="M132.9,57.42l-.46.28-.83.44c-.48.23-.61.35-.72.74s-.24.86.37.6a12.35,12.35,0,0,0,2.08-1.24c.08-.11.33-.31.19-.54s-.37-.47-.63-.28"/><path class="cls-1" d="M132.16,60.06s-.86.44-1.34.64-.62.32-.75.7-.32.83.32.62a11.23,11.23,0,0,0,2.15-1.12c.09-.11.34-.28.23-.52s-.32-.49-.61-.32"/><path class="cls-1" d="M131.25,62.65s-.87.39-1.37.56-.62.29-.79.65-.37.81.27.64A10.91,10.91,0,0,0,130.7,64a6.7,6.7,0,0,0,.89-.47c.09-.11.35-.27.24-.51s-.29-.52-.58-.36"/><path class="cls-1" d="M130.19,65.19s-.89.33-1.39.48-.66.23-.85.59-.4.79.25.65a10.77,10.77,0,0,0,2.28-.84c.09-.1.37-.25.27-.5s-.26-.53-.56-.38"/><path class="cls-1" d="M129,67.65l-.52.16-.91.23c-.52.11-.67.19-.87.54s-.45.78.21.67a11.56,11.56,0,0,0,2.32-.7c.11-.09.38-.22.3-.48s-.23-.55-.53-.42"/><path class="cls-1" d="M127.64,70s-.94.22-1.46.3-.68.15-.9.49-.51.73.16.68a10.5,10.5,0,0,0,2.36-.57c.11-.08.4-.19.34-.45s-.19-.56-.5-.45"/><path class="cls-1" d="M126.13,72.33s-.94.17-1.46.22-.68.12-.93.44-.55.7.12.68a11.29,11.29,0,0,0,1.41-.17,6.37,6.37,0,0,0,1-.25c.11-.08.4-.17.36-.43s-.16-.57-.48-.49"/><path class="cls-1" d="M124.49,74.54s-.94.11-1.46.13a1,1,0,0,0-1,.37c-.26.31-.58.68.09.7a11.41,11.41,0,0,0,2.42-.27c.11-.08.4-.16.38-.42s-.13-.58-.46-.51"/><path class="cls-1" d="M122.73,76.64l-.53,0c-.31,0-.68,0-1,0-.53,0-.7,0-1,.32s-.62.65,0,.7a12.19,12.19,0,0,0,2.43-.13c.12-.06.42-.12.41-.39s-.1-.59-.43-.54"/><path class="cls-1" d="M120.85,78.64s-1,0-1.48-.06-.7,0-1,.27-.68.59,0,.69a10.93,10.93,0,0,0,2.43,0c.12-.06.43-.1.44-.36s-.06-.59-.39-.56"/><path class="cls-1" d="M118.84,80.51s-1-.06-1.47-.14a1.09,1.09,0,0,0-1,.2c-.31.25-.7.55,0,.7.33.06.9.13,1.41.17a6.86,6.86,0,0,0,1,0c.13-.05.43-.07.45-.34s0-.59-.35-.58"/><path class="cls-1" d="M116.73,82.26s-.94-.11-1.46-.22-.69-.1-1,.13-.73.52-.09.7a11.93,11.93,0,0,0,2.42.31c.12-.05.43-.05.47-.32s0-.59-.32-.6"/><path class="cls-1" d="M114.52,83.89l-.53-.1-.92-.22c-.51-.14-.68-.14-1,.08s-.76.47-.13.69a12.41,12.41,0,0,0,2.39.45c.13,0,.44,0,.49-.28s0-.6-.28-.62"/><path class="cls-1" d="M112.21,85.37s-.93-.23-1.42-.41-.68-.17-1,0-.79.41-.17.67a9.92,9.92,0,0,0,2.36.59c.13,0,.44,0,.51-.24s.08-.58-.25-.64"/><path class="cls-1" d="M109.82,86.71s-.91-.29-1.4-.48a1.09,1.09,0,0,0-1,0c-.36.17-.81.37-.21.66a12.44,12.44,0,0,0,1.34.51,5.79,5.79,0,0,0,1,.23c.13,0,.44,0,.52-.22s.12-.58-.2-.65"/><path class="cls-1" d="M107.35,87.91s-.89-.33-1.36-.56-.66-.27-1-.12-.83.33-.25.65a10.7,10.7,0,0,0,2.27.88c.13,0,.43.06.53-.19s.15-.57-.16-.66"/><path class="cls-1" d="M104.81,89l-.49-.21-.84-.44c-.46-.26-.63-.3-1-.17s-.85.29-.29.64a11.57,11.57,0,0,0,2.21,1c.14,0,.43.09.54-.15s.19-.57-.12-.68"/><path class="cls-1" d="M102.22,89.85s-.85-.46-1.29-.74-.62-.34-1-.23-.87.21-.33.62a11.27,11.27,0,0,0,2.14,1.14c.14,0,.43.11.56-.12s.22-.54-.08-.67"/><path class="cls-1" d="M99.57,90.57s-.82-.5-1.24-.81a1.08,1.08,0,0,0-1-.29c-.39.07-.88.16-.36.59a10.92,10.92,0,0,0,1.17.81,5.61,5.61,0,0,0,.9.46c.13,0,.42.14.56-.08s.25-.53,0-.68"/><path class="cls-1" d="M96.88,91.13s-.78-.54-1.18-.87-.57-.41-1-.36-.89.11-.4.57a10.66,10.66,0,0,0,2,1.4c.13,0,.41.16.56-.05s.29-.52,0-.69"/><path class="cls-1" d="M94.17,91.54l-.43-.34a8.5,8.5,0,0,1-.7-.61c-.39-.37-.55-.45-1-.42s-.89.07-.43.55a11.82,11.82,0,0,0,1.9,1.53c.13,0,.4.18.57,0s.31-.51,0-.68"/><path class="cls-1" d="M91.43,91.78s-.18-.15-.4-.36-.49-.47-.67-.67c-.36-.38-.51-.47-.92-.46s-.89,0-.46.53a12.9,12.9,0,0,0,1.8,1.62c.13,0,.39.22.57,0s.35-.49.08-.68"/><path class="cls-1" d="M88.69,91.86s-.67-.69-1-1.1-.49-.49-.89-.5-.89-.07-.49.49A11.41,11.41,0,0,0,88,92.47c.13,0,.38.24.57.06s.37-.46.12-.67"/><path class="cls-1" d="M86,91.76S85.32,91,85,90.62s-.46-.51-.86-.56-.89-.11-.52.45a10.52,10.52,0,0,0,1.59,1.83c.13,0,.36.25.56.08s.41-.43.17-.66"/><path class="cls-1" d="M83.22,91.51s-.59-.76-.88-1.19-.42-.56-.82-.63-.88-.15-.55.43a12.5,12.5,0,0,0,.82,1.17,5,5,0,0,0,.67.75c.12.06.34.28.55.12s.43-.41.21-.65"/><path class="cls-1" d="M80.5,91.09l-.3-.45c-.17-.25-.37-.55-.5-.79-.26-.46-.38-.58-.78-.68s-.87-.2-.57.4a11.82,11.82,0,0,0,1.36,2c.12.06.33.29.55.14s.45-.39.24-.64"/><path class="cls-1" d="M77.82,90.51l-.28-.46c-.15-.27-.33-.59-.44-.83-.23-.48-.35-.61-.74-.72s-.86-.24-.6.37A12,12,0,0,0,77,91c.11.08.31.33.54.19s.48-.36.28-.63"/><path class="cls-1" d="M75.18,89.78s-.44-.86-.64-1.35-.32-.62-.7-.75-.83-.32-.62.32a11.71,11.71,0,0,0,1.12,2.16c.11.08.28.33.52.22s.49-.32.32-.6"/><path class="cls-1" d="M72.59,88.87S72.2,88,72,87.5s-.29-.63-.65-.8-.81-.37-.64.28a10.84,10.84,0,0,0,.51,1.33,5.51,5.51,0,0,0,.47.89c.11.09.27.35.51.25s.52-.3.36-.58"/><path class="cls-1" d="M70.06,87.81s-.34-.89-.49-1.39-.23-.67-.59-.85-.79-.41-.65.24a10.9,10.9,0,0,0,.84,2.29c.1.09.25.36.5.27s.53-.27.39-.56"/><path class="cls-1" d="M67.59,86.6l-.16-.51c-.08-.29-.17-.66-.23-.92-.11-.51-.19-.67-.54-.87s-.78-.45-.67.21a11.35,11.35,0,0,0,.7,2.32c.09.11.22.38.48.31s.55-.24.42-.54"/><path class="cls-1" d="M65.2,85.25s-.22-.94-.3-1.46-.15-.68-.49-.89-.73-.52-.68.16a10.8,10.8,0,0,0,.57,2.36c.08.1.19.39.45.34s.56-.2.45-.51"/><path class="cls-1" d="M62.91,83.74s-.17-.94-.22-1.46a1,1,0,0,0-.44-.93c-.31-.25-.7-.55-.68.12a11.29,11.29,0,0,0,.17,1.41,5.72,5.72,0,0,0,.25,1c.08.11.17.41.43.36s.57-.16.49-.48"/><path class="cls-1" d="M60.7,82.11s-.11-1-.13-1.47-.07-.7-.37-1-.68-.59-.7.08a11.32,11.32,0,0,0,.27,2.42c.08.11.16.41.42.38s.58-.13.51-.45"/><path class="cls-1" d="M58.6,80.35s0-.24,0-.54,0-.68,0-.94c0-.53,0-.7-.32-1s-.65-.62-.7,0a12.19,12.19,0,0,0,.13,2.43c.06.12.12.42.39.41s.59-.1.54-.42"/><path class="cls-1" d="M56.6,78.46s0-1,.06-1.48,0-.7-.27-1-.59-.67-.69,0a10.84,10.84,0,0,0,0,2.42c.06.12.1.43.36.44s.59,0,.56-.39"/><path class="cls-1" d="M54.73,76.46s.06-1,.14-1.48a1.07,1.07,0,0,0-.2-1c-.25-.32-.55-.71-.7,0a13,13,0,0,0-.17,1.41,5.73,5.73,0,0,0,0,1c0,.12.08.43.34.45s.59,0,.58-.35"/><path class="cls-1" d="M53,74.34s.11-.94.22-1.45.1-.7-.13-1-.52-.72-.7-.08a11.77,11.77,0,0,0-.31,2.41c0,.13,0,.44.31.47s.6,0,.61-.32"/><path class="cls-1" d="M51.35,72.13s0-.23.1-.53.15-.66.22-.91c.14-.51.14-.69-.08-1s-.47-.75-.69-.12a12.21,12.21,0,0,0-.45,2.38c0,.14,0,.45.28.49s.6,0,.62-.28"/><path class="cls-1" d="M49.87,69.83s.23-.93.4-1.43.18-.67,0-1-.41-.8-.67-.18a10.58,10.58,0,0,0-.6,2.36c0,.13,0,.44.25.51s.58.09.64-.24"/><path class="cls-1" d="M48.53,67.43s.29-.91.48-1.4a1.07,1.07,0,0,0,.05-1c-.17-.37-.37-.81-.66-.21a11.43,11.43,0,0,0-.51,1.33,5.79,5.79,0,0,0-.23,1c0,.13,0,.44.22.52s.58.12.65-.2"/><path class="cls-1" d="M47.33,65s.33-.89.56-1.36.27-.65.12-1-.33-.83-.65-.25a11.13,11.13,0,0,0-.88,2.27c0,.14-.06.44.19.53s.57.16.66-.16"/><path class="cls-1" d="M46.28,62.42s.1-.21.22-.49.31-.6.44-.83c.26-.46.3-.64.17-1s-.29-.84-.64-.29a11.85,11.85,0,0,0-1,2.21c0,.14-.1.44.15.55s.57.18.67-.13"/><path class="cls-1" d="M45.39,59.83s.46-.85.74-1.29a1,1,0,0,0,.22-1c-.1-.39-.2-.87-.61-.33a11.58,11.58,0,0,0-1.14,2.14c0,.14-.11.43.11.56s.55.22.68-.08"/><path class="cls-1" d="M44.67,57.18s.5-.82.81-1.24a1.06,1.06,0,0,0,.29-1c-.07-.4-.16-.88-.59-.37a11.17,11.17,0,0,0-.81,1.18,6.88,6.88,0,0,0-.47.89c0,.13-.13.42.09.56s.53.26.68,0"/><path class="cls-1" d="M44.11,54.49s.54-.78.87-1.18.41-.57.36-1-.11-.88-.57-.4a10.66,10.66,0,0,0-1.4,2c0,.13-.16.41.05.56s.52.29.69,0"/><path class="cls-1" d="M43.7,51.78l.34-.42a7.27,7.27,0,0,1,.61-.71c.37-.39.45-.54.42-.94s-.07-.9-.55-.44A11.82,11.82,0,0,0,43,51.17c0,.13-.18.4,0,.57s.5.31.68,0"/><path class="cls-1" d="M43.46,49.05l.36-.41.66-.67c.39-.36.48-.51.47-.91s0-.9-.53-.47A11.75,11.75,0,0,0,42.8,48.4c0,.13-.23.38,0,.56s.49.35.68.09"/><path class="cls-1" d="M43.38,46.3s.69-.67,1.09-1,.5-.48.51-.88.06-.9-.49-.5a10.92,10.92,0,0,0-1.72,1.71c-.05.12-.24.37-.06.56s.45.38.67.12"/><path class="cls-1" d="M43.48,43.56s.72-.63,1.14-.94.51-.46.56-.86.11-.88-.45-.52a10.48,10.48,0,0,0-1.83,1.6c0,.12-.25.36-.08.56s.43.4.66.16"/><path class="cls-1" d="M43.73,40.83s.76-.59,1.19-.88.56-.42.63-.81.15-.88-.43-.55A10.58,10.58,0,0,0,44,39.4a5,5,0,0,0-.75.67c-.06.12-.28.35-.12.56s.41.42.65.2"/><path class="cls-1" d="M44.15,38.12l.45-.31a7.74,7.74,0,0,1,.79-.49c.46-.27.58-.39.67-.78s.2-.87-.39-.58a11.75,11.75,0,0,0-2,1.37c-.06.11-.29.32-.14.54s.39.46.64.25"/><path class="cls-1" d="M44.73,35.43l.46-.27c.26-.16.59-.33.83-.45.48-.23.61-.35.72-.74s.24-.85-.37-.6a12,12,0,0,0-2.09,1.25c-.07.11-.32.3-.18.53s.36.48.63.28"/><path class="cls-1" d="M45.46,32.79s.86-.44,1.35-.64.62-.32.74-.7.33-.83-.31-.61A11.2,11.2,0,0,0,45.08,32c-.08.11-.33.29-.22.52s.32.5.6.32"/><path class="cls-1" d="M46.37,30.2s.88-.39,1.37-.56.63-.28.8-.65.37-.81-.28-.63a10.59,10.59,0,0,0-1.33.5,6.1,6.1,0,0,0-.89.48c-.09.1-.35.26-.25.51s.29.51.58.35"/><path class="cls-1" d="M47.43,27.67s.89-.34,1.39-.48.67-.23.85-.59.41-.8-.24-.66a11.5,11.5,0,0,0-2.29.84c-.09.1-.36.25-.27.5s.27.53.56.39"/><path class="cls-1" d="M48.64,25.2l.51-.16.92-.23c.52-.11.67-.19.87-.54s.45-.77-.21-.67a13.21,13.21,0,0,0-2.33.7c-.1.09-.38.23-.3.48s.24.55.54.42"/><path class="cls-1" d="M50,22.81s.94-.21,1.46-.29.68-.16.89-.5.52-.73-.16-.68a11.25,11.25,0,0,0-2.36.57c-.1.08-.39.2-.34.45s.2.56.51.45"/><path class="cls-1" d="M51.5,20.52s.94-.17,1.46-.22a1.06,1.06,0,0,0,.93-.43c.25-.32.55-.71-.12-.69a9.86,9.86,0,0,0-1.41.18,5.17,5.17,0,0,0-1,.24c-.11.08-.41.18-.37.44s.17.57.49.48"/><path class="cls-1" d="M53.13,18.32s.94-.12,1.47-.14.7-.07,1-.37.59-.67-.08-.69a10.71,10.71,0,0,0-2.42.27c-.11.07-.41.15-.38.41s.13.58.45.52"/><path class="cls-1" d="M54.89,16.21l.54,0h.94c.53,0,.7,0,1-.32s.61-.64-.05-.7a12.13,12.13,0,0,0-2.42.13c-.12.06-.43.12-.41.39s.1.59.42.54"/><path class="cls-1" d="M56.78,14.21s1,0,1.48.06.7,0,1-.27.67-.58,0-.69a10.14,10.14,0,0,0-2.42,0c-.13,0-.43.09-.44.36s0,.58.39.55"/><path class="cls-1" d="M58.78,12.34s1,.07,1.48.14a1,1,0,0,0,1-.2c.32-.25.7-.55.05-.69a10.89,10.89,0,0,0-1.41-.17,6.05,6.05,0,0,0-1,0c-.13.05-.44.08-.46.34s0,.59.35.58"/><path class="cls-1" d="M60.9,10.59s.94.11,1.45.22a1,1,0,0,0,1-.13c.32-.23.72-.52.08-.69a11.25,11.25,0,0,0-2.41-.32c-.13.05-.44.06-.47.32s0,.59.32.6"/><path class="cls-1" d="M63.11,9l.53.09c.3.07.66.15.91.23a1,1,0,0,0,1-.08c.33-.22.75-.48.12-.7a13,13,0,0,0-2.38-.45c-.14,0-.45,0-.5.28s0,.6.29.63"/><path class="cls-1" d="M65.41,7.48s.93.24,1.43.41a1,1,0,0,0,1,0c.36-.19.8-.41.18-.67a11,11,0,0,0-2.36-.59c-.13,0-.44,0-.51.24s-.09.58.24.64"/><path class="cls-1" d="M67.81,6.14s.91.29,1.39.48a1.06,1.06,0,0,0,1,0c.37-.16.82-.37.21-.66a10,10,0,0,0-1.33-.5,5.45,5.45,0,0,0-1-.24c-.14,0-.44,0-.52.22s-.12.58.2.65"/><path class="cls-1" d="M70.28,5s.89.33,1.36.56a1.06,1.06,0,0,0,1,.12c.37-.15.83-.33.25-.66a11.76,11.76,0,0,0-2.27-.88c-.14,0-.44,0-.53.19s-.16.58.16.67"/><path class="cls-1" d="M72.82,3.9l.49.22c.27.13.6.3.83.43.46.26.64.3,1,.17s.84-.28.28-.64a12.22,12.22,0,0,0-2.2-1c-.14,0-.44-.09-.55.15s-.18.57.13.68"/><path class="cls-1" d="M75.41,3s.85.46,1.29.75.61.33,1,.22.87-.21.33-.62a11.4,11.4,0,0,0-2.14-1.13c-.14,0-.43-.12-.56.11s-.22.54.08.67"/><path class="cls-1" d="M78.06,2.28s.82.5,1.24.81a1,1,0,0,0,1,.29c.4-.07.88-.16.37-.59A12,12,0,0,0,79.48,2a5.61,5.61,0,0,0-.9-.46c-.14,0-.42-.14-.56.08s-.26.54,0,.68"/><path class="cls-1" d="M80.74,1.72s.79.54,1.19.87.57.42,1,.36.88-.11.4-.57a10.66,10.66,0,0,0-2-1.4c-.13,0-.41-.16-.56.06s-.29.52,0,.68"/><path class="cls-1" d="M83.46,1.32l.42.33c.24.19.52.43.71.61.39.37.54.45.94.42s.89-.07.44-.55A12.41,12.41,0,0,0,84.07.6c-.13,0-.4-.17-.57,0s-.32.51,0,.69"/><path class="cls-1" d="M86.19,1.07s.18.15.4.36.49.47.67.67c.37.38.52.47.92.46s.9,0,.47-.53A12.32,12.32,0,0,0,86.84.41c-.13,0-.39-.22-.56,0s-.35.49-.09.68"/><path class="cls-1" d="M88.94,1s.67.69,1,1.1.48.5.88.51.89.06.5-.5A11.39,11.39,0,0,0,89.62.38c-.12,0-.37-.23-.56,0s-.38.45-.12.66"/><path class="cls-1" d="M91.68,1.09s.63.72.94,1.14.46.51.86.56.88.12.52-.45A10.48,10.48,0,0,0,92.4.51c-.12,0-.36-.25-.56-.08s-.4.43-.16.66"/><path class="cls-1" d="M94.41,1.35s.59.75.87,1.18.43.56.82.63.88.15.55-.43a10.58,10.58,0,0,0-.81-1.17,5,5,0,0,0-.67-.75c-.12-.06-.35-.27-.56-.11s-.42.41-.2.65"/><path class="cls-1" d="M97.12,1.76l.31.45c.16.25.36.55.49.79.26.47.39.59.78.68s.87.2.58-.4a11.19,11.19,0,0,0-1.37-2c-.12-.07-.32-.29-.55-.15s-.45.39-.24.64"/><path class="cls-1" d="M99.81,2.34l.27.46c.16.27.33.6.45.83.23.48.35.61.74.72s.85.24.6-.37a11.87,11.87,0,0,0-1.25-2.08c-.11-.08-.3-.33-.53-.19s-.48.37-.28.63"/><path class="cls-1" d="M102.45,3.08s.44.85.64,1.34.32.62.7.75.83.32.61-.32a10.76,10.76,0,0,0-1.11-2.15c-.11-.09-.29-.34-.52-.23s-.5.33-.32.61"/><path class="cls-1" d="M105,4s.39.87.56,1.37.28.62.65.79.81.37.63-.28a11.21,11.21,0,0,0-.5-1.33,7.6,7.6,0,0,0-.48-.89c-.1-.09-.27-.35-.51-.25s-.51.3-.35.59"/><path class="cls-1" d="M107.57,5.05s.34.89.48,1.39.23.66.59.84.8.41.66-.24a11.36,11.36,0,0,0-.84-2.28c-.1-.1-.25-.36-.5-.27s-.53.26-.39.56"/><path class="cls-1" d="M110,6.25s.06.23.16.52.17.65.23.91c.1.52.19.67.54.87s.77.45.67-.21a12.79,12.79,0,0,0-.7-2.32c-.09-.11-.23-.38-.48-.3s-.55.23-.42.53"/><path class="cls-1" d="M112.43,7.6s.21.94.29,1.46.16.68.5.9.73.51.68-.16a11.09,11.09,0,0,0-.57-2.36c-.08-.11-.2-.4-.45-.35s-.56.2-.45.51"/><path class="cls-1" d="M114.72,9.11s.17.94.22,1.46a1.06,1.06,0,0,0,.43.93c.32.25.7.55.69-.12a11.55,11.55,0,0,0-.18-1.41,6.54,6.54,0,0,0-.24-1c-.08-.11-.18-.4-.44-.36s-.57.16-.48.48"/><path class="cls-1" d="M116.92,10.75s.12.94.14,1.46.07.7.37,1,.67.59.69-.08a11.13,11.13,0,0,0-.27-2.41c-.07-.12-.15-.42-.41-.39s-.58.13-.52.46"/><path class="cls-1" d="M119,12.51s0,.23,0,.53,0,.68,0,1c0,.53,0,.69.33,1s.64.62.7,0a12.19,12.19,0,0,0-.13-2.43c-.06-.12-.12-.42-.39-.41s-.59.1-.54.43"/><path class="cls-1" d="M121,14.39s0,1-.06,1.48,0,.7.27,1,.58.67.69,0a10.22,10.22,0,0,0,0-2.43c0-.12-.09-.43-.36-.44s-.58.06-.55.39"/><path class="cls-1" d="M122.9,16.4s-.07,1-.14,1.47a1.07,1.07,0,0,0,.2,1c.25.31.55.7.69,0a10.68,10.68,0,0,0,.17-1.41,6.09,6.09,0,0,0,0-1c-.06-.13-.08-.43-.34-.46s-.59,0-.58.36"/><path class="cls-1" d="M124.65,18.51s-.11.94-.22,1.45-.11.7.13,1,.52.73.69.08a11.25,11.25,0,0,0,.32-2.41c0-.13-.06-.43-.32-.47s-.59,0-.6.32"/><path class="cls-1" d="M126.27,20.72s0,.23-.1.53-.14.66-.22.92a1,1,0,0,0,.08,1c.22.34.48.76.7.13a13.25,13.25,0,0,0,.45-2.39c0-.13,0-.44-.28-.49s-.6-.05-.63.28"/><path class="cls-1" d="M127.76,23s-.24.93-.41,1.42a1,1,0,0,0,0,1c.18.35.41.79.67.17a11.11,11.11,0,0,0,.59-2.35c0-.14,0-.45-.24-.52s-.59-.08-.64.25"/><path class="cls-1" d="M129.1,25.42s-.29.91-.49,1.4a1.06,1.06,0,0,0,0,1c.16.36.36.81.66.21a10.76,10.76,0,0,0,.5-1.34,5.26,5.26,0,0,0,.24-1c0-.13,0-.44-.22-.52s-.58-.12-.65.2"/><path class="cls-1" d="M130.29,27.89s-.33.89-.56,1.36a1.06,1.06,0,0,0-.12,1c.15.37.33.83.66.25a11.29,11.29,0,0,0,.88-2.27c0-.13,0-.43-.19-.53s-.58-.15-.67.16"/><path class="cls-1" d="M131.34,30.43l-.22.49c-.13.27-.3.61-.43.84-.27.46-.3.63-.17,1s.28.85.64.29a13,13,0,0,0,1-2.21c0-.14.09-.44-.15-.54s-.57-.19-.68.12"/><path class="cls-1" d="M132.24,33s-.46.85-.75,1.29-.33.61-.22,1,.21.87.61.33A11.76,11.76,0,0,0,133,33.5c0-.14.11-.43-.12-.56s-.54-.22-.67.08"/><path class="cls-1" d="M133,35.67s-.51.82-.81,1.24a1.05,1.05,0,0,0-.29,1c.07.39.15.87.59.36a12,12,0,0,0,.81-1.17,6.73,6.73,0,0,0,.46-.9c0-.13.14-.42-.08-.56s-.54-.25-.68,0"/><path class="cls-1" d="M133.52,38.36s-.54.78-.87,1.18-.42.57-.36,1,.11.89.57.4a10.66,10.66,0,0,0,1.4-2c0-.13.16-.41-.06-.56s-.52-.29-.68,0"/><path class="cls-1" d="M133.92,41.07s-.14.19-.33.42-.43.52-.61.71c-.37.39-.45.55-.42.95s.07.89.55.43a11.64,11.64,0,0,0,1.52-1.9c0-.13.18-.4,0-.56s-.51-.32-.69,0"/><path class="cls-1" d="M134.17,43.81s-.15.18-.36.4-.47.49-.67.67c-.38.36-.47.51-.46.92s0,.89.53.46a12.32,12.32,0,0,0,1.62-1.81c0-.12.22-.38,0-.56s-.49-.35-.68-.08"/><polygon class="cls-2" points="101.98 77.63 102.19 80.42 99.6 81.48 102.31 82.14 102.52 84.93 103.99 82.55 106.7 83.22 104.9 81.08 106.37 78.71 103.78 79.77 101.98 77.63"/><polygon class="cls-2" points="88.95 80.25 88.11 82.92 85.31 82.95 87.59 84.57 86.75 87.23 89 85.57 91.27 87.19 90.38 84.54 92.63 82.88 89.83 82.91 88.95 80.25"/><polygon class="cls-2" points="102.5 7.68 102.27 10.46 99.56 11.11 102.13 12.18 101.91 14.97 103.73 12.85 106.31 13.92 104.85 11.54 106.67 9.42 103.95 10.06 102.5 7.68"/><polygon class="cls-2" points="116.24 15.85 115.03 18.36 112.26 17.99 114.28 19.92 113.06 22.43 115.53 21.11 117.55 23.04 117.05 20.29 119.51 18.97 116.74 18.59 116.24 15.85"/><polygon class="cls-2" points="124.14 56.94 123.04 59.51 120.26 59.26 122.36 61.1 121.26 63.67 123.66 62.24 125.76 64.08 125.14 61.35 127.54 59.92 124.76 59.67 124.14 56.94"/><polygon class="cls-2" points="117.38 69.6 115.42 71.59 112.92 70.34 114.2 72.82 112.24 74.81 115 74.35 116.28 76.83 116.7 74.07 119.45 73.62 116.96 72.36 117.38 69.6"/><polygon class="cls-2" points="125.76 28.75 123.62 30.54 121.25 29.06 122.29 31.65 120.15 33.45 122.94 33.25 123.98 35.85 124.66 33.13 127.44 32.94 125.08 31.46 125.76 28.75"/><polygon class="cls-2" points="125.37 42.8 125.39 45.59 122.74 46.48 125.4 47.32 125.42 50.12 127.05 47.84 129.71 48.69 128.05 46.44 129.68 44.16 127.03 45.05 125.37 42.8"/><polygon class="cls-2" points="91.11 5.52 90.32 8.2 92.61 9.79 89.82 9.85 89.02 12.53 88.1 9.89 85.3 9.96 87.52 8.27 86.6 5.63 88.89 7.22 91.11 5.52"/><polygon class="cls-2" points="75.42 7.68 75.64 10.46 78.36 11.11 75.78 12.18 76.01 14.97 74.19 12.85 71.61 13.92 73.07 11.54 71.25 9.42 73.97 10.06 75.42 7.68"/><polygon class="cls-2" points="61.67 15.85 62.89 18.36 65.66 17.99 63.64 19.92 64.85 22.43 62.39 21.11 60.37 23.04 60.87 20.29 58.41 18.97 61.18 18.59 61.67 15.85"/><polygon class="cls-2" points="53.78 56.94 54.88 59.51 57.66 59.26 55.56 61.1 56.66 63.67 54.26 62.24 52.16 64.08 52.78 61.35 50.38 59.92 53.16 59.67 53.78 56.94"/><polygon class="cls-2" points="60.54 69.6 62.5 71.59 65 70.34 63.72 72.82 65.68 74.81 62.92 74.35 61.64 76.83 61.22 74.07 58.46 73.62 60.96 72.36 60.54 69.6"/><polygon class="cls-2" points="75.94 77.63 75.73 80.42 78.32 81.48 75.6 82.14 75.4 84.93 73.93 82.55 71.21 83.22 73.02 81.08 71.55 78.71 74.13 79.77 75.94 77.63"/><polygon class="cls-2" points="52.16 28.75 54.3 30.54 56.67 29.06 55.63 31.65 57.77 33.45 54.98 33.25 53.94 35.85 53.26 33.13 50.47 32.94 52.84 31.46 52.16 28.75"/><polygon class="cls-2" points="52.55 42.8 52.53 45.59 55.18 46.48 52.52 47.32 52.49 50.12 50.87 47.84 48.21 48.69 49.87 46.44 48.24 44.16 50.89 45.05 52.55 42.8"/><path class="cls-2" d="M80.36,36.88A1.07,1.07,0,1,0,81.44,38,1.07,1.07,0,0,0,80.36,36.88Zm0,1.56a.49.49,0,1,1,.49-.49A.49.49,0,0,1,80.36,38.44Z"/><path class="cls-2" d="M97.12,36.88A1.07,1.07,0,1,0,98.19,38,1.07,1.07,0,0,0,97.12,36.88Zm0,1.56a.49.49,0,1,1,.49-.49A.49.49,0,0,1,97.12,38.44Z"/><path class="cls-2" d="M76,51.94h8.68a4.72,4.72,0,0,1-8.68,0Z"/><path class="cls-2" d="M92.75,51.94h8.67a4.72,4.72,0,0,1-8.67,0Z"/><polygon class="cls-2" points="80.02 38.88 80.71 38.88 83.72 51.76 83.12 51.76 80.55 40.25 80.23 40.25 77.68 51.77 77.02 51.77 80.02 38.88"/><polygon class="cls-2" points="96.77 38.88 97.47 38.88 100.47 51.76 99.87 51.76 97.3 40.25 96.98 40.25 94.44 51.77 93.78 51.77 96.77 38.88"/><path class="cls-2" d="M88.73,38.57l-.51.71V56.4h-.85v.53h.84V59.6a.85.85,0,0,0,.76.8h.73v-.46h-.35v-3h.8v-.59h-.84V39.26Z"/><path class="cls-2" d="M89,63.54v1.8a13,13,0,0,1,4.1-3.23c2.53-1.25,6.78-.63,8.17-.31a18.62,18.62,0,0,1,2.16.61l1.93-1.12a22.41,22.41,0,0,0-6.83-1.46,14.09,14.09,0,0,0-7.2,1.88A10.65,10.65,0,0,0,89,63.54Z"/><path class="cls-2" d="M88.94,62.89a13.93,13.93,0,0,1,4.39-3,15.08,15.08,0,0,1,7.8-1c1.4.12,1.91.19,1.91.19l1.35-.85a16.34,16.34,0,0,0-4.42-.54,16.17,16.17,0,0,0-7.57,1.92,10.29,10.29,0,0,0-3.46,3Z"/><path class="cls-2" d="M90.27,60.44a14.19,14.19,0,0,1,6.31-3.26,20.18,20.18,0,0,1,5.42-.44l1.54-1.06a18.73,18.73,0,0,0-6.18.4A13.93,13.93,0,0,0,91.69,59,9.71,9.71,0,0,0,90.27,60.44Z"/><path class="cls-2" d="M89,63.54v1.8a13,13,0,0,0-4.09-3.23c-2.54-1.25-6.79-.63-8.18-.31a18,18,0,0,0-2.15.61L72.6,61.29a22.42,22.42,0,0,1,6.84-1.46,14.08,14.08,0,0,1,7.19,1.88A10.34,10.34,0,0,1,89,63.54Z"/><path class="cls-2" d="M88.94,62.89a13.93,13.93,0,0,0-4.39-3,15.08,15.08,0,0,0-7.8-1c-1.4.12-1.91.19-1.91.19l-1.35-.85a16.34,16.34,0,0,1,4.42-.54,16.17,16.17,0,0,1,7.57,1.92,10.29,10.29,0,0,1,3.46,3Z"/><path class="cls-2" d="M87.65,60.44a14.19,14.19,0,0,0-6.31-3.26,20.18,20.18,0,0,0-5.42-.44l-1.54-1.06a18.73,18.73,0,0,1,6.18.4A13.86,13.86,0,0,1,86.23,59,9.71,9.71,0,0,1,87.65,60.44Z"/><path class="cls-2" d="M83.79,31.11a3.82,3.82,0,0,1,7-2,3.06,3.06,0,1,0-2.27,5.1,3,3,0,0,0,2.27-1,3.82,3.82,0,0,1-7-2"/><polygon class="cls-2" points="94.22 29.99 92.9 30.42 92.08 29.29 92.08 30.68 90.77 31.11 92.08 31.54 92.08 32.93 92.9 31.81 94.22 32.23 93.41 31.11 94.22 29.99"/><path class="cls-2" d="M90.08,73.66a1.14,1.14,0,1,1-1.14-1.14A1.13,1.13,0,0,1,90.08,73.66Z"/><path class="cls-2" d="M73.55,70l.94.63-.44.67-2.69-1.81.45-.66,1,.64,1.9-2.83.8.53Z"/><path class="cls-2" d="M68.36,67.7a.42.42,0,1,1-.61-.58.43.43,0,0,1,.6,0A.42.42,0,0,1,68.36,67.7Zm1.21.23,1.67-1.75c.5-.53.55-1,.2-1.32s-.8-.28-1.31.26l-1.67,1.75-.69-.65,1.63-1.71A1.64,1.64,0,0,1,72,64.33c.77.73.82,1.59-.11,2.56l-1.62,1.7Zm-.27.67a.42.42,0,1,1-.61-.58.41.41,0,0,1,.59,0A.43.43,0,0,1,69.3,68.6Z"/><path class="cls-2" d="M66.68,64.86a9.72,9.72,0,0,1-.83-1,2.16,2.16,0,0,1-.54-1.29,1.11,1.11,0,0,1,.48-.84,1.13,1.13,0,0,1,1.28,0h0a1.06,1.06,0,0,1,.3-.92,8.92,8.92,0,0,0,.75-1l.58.79a5.34,5.34,0,0,1-.61.82c-.36.4-.37.63-.14.94l.17.23,1.33-1,.56.76Zm.9-1.84-.23-.3c-.28-.38-.64-.47-.93-.25s-.31.56-.06.91a2.62,2.62,0,0,0,.28.33Z"/><path class="cls-2" d="M64,61.12l-.43-.84,1.66-.85v0l-.54,0L63,59.15l-.54-1,2.23.43,1.49-2.41.51,1-1.16,1.75.56.12,1.23-.63.43.84Z"/><path class="cls-2" d="M61.43,57.14a.42.42,0,0,1-.55-.26.43.43,0,0,1,.8-.29A.43.43,0,0,1,61.43,57.14Zm.32-1.08,4-1.43.33.89-4,1.44Z"/><path class="cls-2" d="M65.16,52.78l-1.68.4L61.37,55,61.12,54l.88-.65.71-.5h0l-.86-.12-1.08-.19-.24-1,2.7.79,1.71-.4Z"/><path class="cls-2" d="M62.58,47.61l.13,1.54,1-.09-.15-1.72.77-.07L64.57,50l-4.19.37-.23-2.59.78-.07.14,1.64.87-.08-.13-1.54Z"/><path class="cls-2" d="M64.6,41.76a2.82,2.82,0,0,1,.05,1.09A2,2,0,0,1,62.3,44.8a2.15,2.15,0,0,1-1.95-2.55,2.48,2.48,0,0,1,.31-1l.73.29a1.93,1.93,0,0,0-.25.77,1.38,1.38,0,0,0,2.75.32,2.31,2.31,0,0,0,0-.81Z"/><path class="cls-2" d="M61.11,38.86l2.32.69c.7.21,1.13.05,1.27-.42s-.12-.84-.83-1.05l-2.33-.69.27-.91,2.27.67a1.65,1.65,0,0,1,1.34,2.23c-.3,1-1,1.45-2.33,1.07l-2.25-.67Z"/><path class="cls-2" d="M66.43,32.84c-.46-.22-1-.49-1.55-.78v0a15.24,15.24,0,0,1,1.22,1.18l1.21,1.22-.35.66-1.65-.37c-.5-.11-1.09-.27-1.62-.44h0c.49.29,1,.61,1.5.89l1.38.81-.42.78-3.58-2.21.59-1.12,1.43.29c.5.12,1,.25,1.5.4v0c-.37-.33-.8-.72-1.15-1.06l-1-1.06L64.49,31l3.83,1.77-.44.82Z"/><path class="cls-2" d="M66.22,28.59l1.25,1,1-1.21-1.25-1,.6-.73,3.25,2.67-.6.74-1.36-1.12-1,1.21,1.36,1.12-.61.74-3.25-2.68Z"/><path class="cls-2" d="M69.79,24.78l1.56,1.85c.47.55.92.65,1.29.34s.37-.77-.12-1.34L71,23.78l.72-.61L73.21,25a1.65,1.65,0,0,1-.1,2.6c-.81.68-1.67.64-2.53-.38L69.06,25.4Z"/><path class="cls-2" d="M73.13,22.24a8.08,8.08,0,0,1,1-.73,2.15,2.15,0,0,1,1.34-.41,1.07,1.07,0,0,1,.78.56,1.1,1.1,0,0,1-.11,1.27v0a1.05,1.05,0,0,1,.89.39c.35.34.75.74.9.84l-.84.5a5.4,5.4,0,0,1-.75-.69c-.36-.4-.59-.43-.93-.24l-.25.15.85,1.42-.81.49Zm1.73,1.07.32-.19c.41-.24.53-.59.34-.91s-.52-.36-.9-.14a2,2,0,0,0-.35.24Z"/><path class="cls-2" d="M76.77,19.42a.42.42,0,0,1,.23-.57.41.41,0,0,1,.55.22.42.42,0,0,1-.21.56A.43.43,0,0,1,76.77,19.42Zm1.1.24,1.7,3.85-.87.39L77,20.05Z"/><path class="cls-2" d="M81.37,22.84l-.5-1.65-2-2,1-.31.71.84c.22.25.37.44.55.67h0c0-.28,0-.54.07-.87l.11-1.09,1-.31-.6,2.75.51,1.68Z"/><path class="cls-2" d="M86.37,19.93l-1.53.24.15,1,1.71-.26.11.78-2.65.4-.63-4.16,2.57-.39.11.77-1.62.25.13.86,1.53-.23Z"/><path class="cls-2" d="M88.46,18.2l-1.13,0v-.8l3.23-.06v.8l-1.14,0,0,3.41-1,0Z"/><path class="cls-2" d="M92.78,17.61l-.45,4.19-1-.11.45-4.18ZM92,16.85a.43.43,0,0,1,.48-.38.41.41,0,0,1,.37.47.42.42,0,0,1-.46.38A.44.44,0,0,1,92,16.85Z"/><path class="cls-2" d="M96.17,21.47l-.61,1-.94-.29,2.47-3.64,1.19.37v4.4l-1-.3V21.83Zm1.23-.36v-.93c0-.26,0-.58,0-.84h0c-.14.22-.29.5-.43.72l-.5.78Z"/><path class="cls-2" d="M100.89,19.87a10.78,10.78,0,0,1,1.18.52,2.7,2.7,0,0,1,1.32,1.19,1.87,1.87,0,0,1-.1,1.74,2.15,2.15,0,0,1-1.41,1.19,3,3,0,0,1-2-.41,8.17,8.17,0,0,1-.93-.56Zm-.74,3.49a1.11,1.11,0,0,0,.29.17,1.3,1.3,0,0,0,1.94-.65,1.21,1.21,0,0,0-.56-1.8,2.44,2.44,0,0,0-.4-.16Z"/><path class="cls-2" d="M104.3,25.42l-.9.68-.78-.6,3.58-2.56,1,.76-1.52,4.13-.81-.62.39-1.06Zm1.28.08.33-.86c.1-.25.23-.54.33-.78h0c-.2.17-.45.38-.65.53l-.74.56Z"/><path class="cls-2" d="M109.25,25.48l.66.69-2.47,2.36,1.16,1.21-.58.55-1.81-1.9Z"/><path class="cls-2" d="M111.42,31.89l-.91-1.25-.81.58,1,1.4-.63.46-1.57-2.18,3.42-2.46,1.52,2.11-.64.46-1-1.34-.71.51.91,1.26Z"/><path class="cls-2" d="M113.94,33l-.52-1,.72-.37,1.48,2.88-.71.36-.53-1-3,1.56-.44-.85Z"/><path class="cls-2" d="M116.69,37.51a7.72,7.72,0,0,1,.4,1.17,2.37,2.37,0,0,1,.09,1.26.93.93,0,0,1-.67.7,1,1,0,0,1-1.05-.44h0a1,1,0,0,1-.79,1.07,1.1,1.1,0,0,1-1-.19,2.61,2.61,0,0,1-.79-1.5,8.8,8.8,0,0,1-.21-1Zm-3.12,1.8a3.14,3.14,0,0,0,.08.36c.11.41.37.74.79.63s.48-.52.36-1l-.08-.31Zm1.8-.48.08.3c.13.49.4.69.7.61s.41-.36.3-.77a2.83,2.83,0,0,0-.13-.39Z"/><path class="cls-2" d="M114.78,43.28l-1.1-.2-.09-1,4.31.89.11,1.25-4.07,1.68-.1-1,1-.42Zm.81,1,.86-.35.79-.28h0l-.83-.12-.91-.17Z"/><path class="cls-2" d="M118.11,47l-.07.94-1.86-.13h0l.44.33,1.33,1-.09,1.17-1.68-1.52-2.52,1.28.08-1.11,1.89-.89-.42-.4-1.37-.1.07-.94Z"/><path class="cls-2" d="M114.34,52l-1-.55.24-1,3.77,2.27-.3,1.21-4.4.25.25-1,1.12-.05Zm.43,1.21.93,0h.84l-.74-.38-.81-.46Z"/><path class="cls-2" d="M112.41,54.9l3.83,1.73-.45,1L114,57.8a12.22,12.22,0,0,1-1.6,0h0a17.39,17.39,0,0,1,1.64.65l1.12.51-.36.79L111,58.07l.41-.91,1.85-.15a15.19,15.19,0,0,1,1.66,0v0c-.52-.21-1.06-.44-1.69-.72l-1.15-.53Z"/><path class="cls-2" d="M114,61.27l-.53.8-2.84-1.88-.93,1.39-.66-.44L110.44,59Z"/><path class="cls-2" d="M111.08,65.19l-3.23-2.69.61-.74,3.23,2.7Z"/><path class="cls-2" d="M104.73,65.84a4.61,4.61,0,0,1,.87-1.12,2.35,2.35,0,0,1,1.64-.75,2.1,2.1,0,0,1,1.48.72,2.18,2.18,0,0,1-.28,3.25,2.82,2.82,0,0,1-1,.64l-.37-.69a2.44,2.44,0,0,0,.84-.54,1.37,1.37,0,1,0-2.11-1.69l.59.64.48-.44.51.55-1.15,1.06Zm4.86,2.4a.33.33,0,0,0-.47,0,.35.35,0,0,0-.09.48l-.35.33a.77.77,0,0,1,.11-1.18.75.75,0,0,1,1.17,0Z"/><path class="cls-2" d="M105.44,70.24,103,66.8l.78-.55,2.43,3.44Z"/><path class="cls-2" d="M89.15,14.8a31.58,31.58,0,1,0,31.58,31.58A31.58,31.58,0,0,0,89.15,14.8Zm0,62.77a31.19,31.19,0,1,1,31.19-31.19A31.19,31.19,0,0,1,89.15,77.57Z"/><path class="cls-2" d="M96.21,38.58A1.05,1.05,0,0,1,96,38a1.07,1.07,0,0,1,.17-.59H81.3a1.16,1.16,0,0,1,.17.59,1.06,1.06,0,0,1-.21.63Z"/><path class="cls-3" d="M.5,108.79a12.54,12.54,0,0,1,2.1-.16,3.49,3.49,0,0,1,2.38.7,2.28,2.28,0,0,1,.74,1.78,2.48,2.48,0,0,1-.65,1.81,3.5,3.5,0,0,1-2.59.93,3.92,3.92,0,0,1-.88-.07v3.4H.5Zm1.1,4.09a3.28,3.28,0,0,0,.9.09c1.32,0,2.13-.64,2.13-1.81s-.79-1.66-2-1.66a4,4,0,0,0-1,.09Z"/><path class="cls-3" d="M12.16,113.17H8.86v3.06h3.68v.91H7.77v-8.48h4.58v.92H8.86v2.68h3.3Z"/><path class="cls-3" d="M14.58,108.81a10.89,10.89,0,0,1,2.1-.18,3.48,3.48,0,0,1,2.46.69,2.12,2.12,0,0,1,.67,1.61,2.24,2.24,0,0,1-1.6,2.17v0a2.1,2.1,0,0,1,1.24,1.71,13.47,13.47,0,0,0,.66,2.33H19a10.85,10.85,0,0,1-.57-2c-.25-1.17-.71-1.61-1.7-1.65h-1v3.68h-1.1Zm1.1,3.86H16.8c1.17,0,1.91-.64,1.91-1.61s-.79-1.58-1.95-1.59a4.46,4.46,0,0,0-1.08.1Z"/><path class="cls-3" d="M22.43,115.82a3.9,3.9,0,0,0,2,.55c1.12,0,1.78-.59,1.78-1.45s-.46-1.24-1.6-1.68c-1.39-.5-2.24-1.21-2.24-2.41s1.09-2.3,2.74-2.3a3.93,3.93,0,0,1,1.88.41l-.31.9a3.34,3.34,0,0,0-1.61-.41c-1.15,0-1.6.7-1.6,1.28,0,.79.52,1.18,1.69,1.63,1.44.56,2.17,1.25,2.17,2.49s-1,2.45-3,2.45a4.41,4.41,0,0,1-2.17-.54Z"/><path class="cls-3" d="M37.08,112.81c0,2.92-1.77,4.47-3.94,4.47s-3.81-1.73-3.81-4.3,1.67-4.46,3.94-4.46S37.08,110.3,37.08,112.81ZM30.5,113c0,1.82,1,3.44,2.71,3.44s2.72-1.6,2.72-3.53c0-1.68-.88-3.44-2.71-3.44S30.5,111.09,30.5,113Z"/><path class="cls-3" d="M39.13,117.14v-8.48h1.19L43,113a25.61,25.61,0,0,1,1.53,2.76h0c-.1-1.14-.12-2.17-.12-3.49v-3.55h1v8.48H44.39l-2.69-4.3A25.39,25.39,0,0,1,40.11,110h0c.06,1.07.09,2.09.09,3.5v3.62Z"/><path class="cls-3" d="M51.93,113.17H48.64v3.06h3.67v.91H47.54v-8.48h4.58v.92H48.64v2.68h3.29Z"/><path class="cls-3" d="M54.35,108.66h1.1v7.57h3.62v.91H54.35Z"/><path class="cls-3" d="M70.08,116.74a7.79,7.79,0,0,1-2.61.47,4,4,0,0,1-4.35-4.28,4.25,4.25,0,0,1,4.59-4.38,5.24,5.24,0,0,1,2.12.39l-.27.89a4.41,4.41,0,0,0-1.87-.36,3.17,3.17,0,0,0-3.41,3.41,3.1,3.1,0,0,0,3.27,3.42,3.47,3.47,0,0,0,1.46-.23v-2.53H67.28v-.88h2.8Z"/><path class="cls-3" d="M76.52,113.14h-3.3v3.06h3.67v.92H72.12v-8.48H76.7v.91H73.22v2.68h3.3Z"/><path class="cls-3" d="M78.94,117.12v-8.48h1.19l2.72,4.29a23.73,23.73,0,0,1,1.52,2.75h0c-.1-1.13-.13-2.16-.13-3.49v-3.54h1v8.48H84.2l-2.7-4.31A27,27,0,0,1,79.92,110h0c.06,1.07.09,2.09.09,3.5v3.63Z"/><path class="cls-3" d="M91.74,113.14h-3.3v3.06h3.68v.92H87.35v-8.48h4.58v.91H88.44v2.68h3.3Z"/><path class="cls-3" d="M94.16,108.64h1.1v7.56h3.62v.92H94.16Z"/><path class="cls-3" d="M131,106.1a.63.63,0,0,1,.63-.63.61.61,0,0,1,.6.63.62.62,0,1,1-1.23,0Z"/><path class="cls-3" d="M136,106.1a.63.63,0,0,1,.62-.63.64.64,0,1,1-.62.63Z"/><path class="cls-3" d="M113.65,106.1a.63.63,0,0,1,.63-.63.64.64,0,1,1-.63.63Z"/><path class="cls-3" d="M118.65,106.1a.63.63,0,0,1,.62-.63.64.64,0,0,1,0,1.28A.61.61,0,0,1,118.65,106.1Z"/><path class="cls-3" d="M153.58,106.1a.63.63,0,0,1,.63-.63.61.61,0,0,1,.6.63.62.62,0,1,1-1.23,0Z"/><path class="cls-3" d="M158.59,106.1a.62.62,0,0,1,.61-.63.64.64,0,1,1-.61.63Z"/><path class="cls-3" d="M170.89,106.1a.63.63,0,0,1,.62-.63.64.64,0,1,1-.62.63Z"/><path class="cls-3" d="M175.89,106.1a.62.62,0,0,1,.62-.63.64.64,0,0,1,0,1.28A.61.61,0,0,1,175.89,106.1Z"/><path class="cls-3" d="M165,105.44a.81.81,0,0,0,.9.62c.61,0,.85-.29.92-.62h.64c0,.75-.49,1.34-1.58,1.34s-1.52-.58-1.54-1.34Z"/><path class="cls-3" d="M110.3,113.42c-.06-1.18-.13-2.61-.12-3.67h0c-.29,1-.64,2.06-1.07,3.23l-1.5,4.11h-.83l-1.37-4c-.4-1.19-.74-2.29-1-3.3h0c0,1.06-.09,2.49-.16,3.76l-.23,3.63h-1l.59-8.48h1.4l1.44,4.1c.36,1,.65,2,.86,2.86h0c.21-.85.51-1.79.89-2.86l1.51-4.1h1.4l.53,8.48h-1.07Z"/><path class="cls-3" d="M114.74,108.59v5c0,1.9.84,2.71,2,2.71s2.07-.83,2.07-2.71v-5h1.11v5c0,2.6-1.37,3.67-3.21,3.67s-3.05-1-3.05-3.62v-5Z"/><path class="cls-3" d="M132,108.59v5c0,1.9.85,2.71,2,2.71s2.06-.83,2.06-2.71v-5h1.11v5c0,2.6-1.37,3.67-3.21,3.67s-3-1-3-3.62v-5Z"/><path class="cls-3" d="M121.93,108.77a15.78,15.78,0,0,1,2.33-.18,4.9,4.9,0,0,1,3.44,1.06,3.92,3.92,0,0,1,1.19,3,4.49,4.49,0,0,1-1.22,3.29,5.19,5.19,0,0,1-3.75,1.22,16.14,16.14,0,0,1-2-.1Zm1.1,7.5a6.9,6.9,0,0,0,1.1.06,3.27,3.27,0,0,0,3.62-3.6c0-2-1.12-3.27-3.44-3.27a6.34,6.34,0,0,0-1.28.11Z"/><path class="cls-3" d="M139.23,108.81a10.92,10.92,0,0,1,2.11-.18,3.45,3.45,0,0,1,2.45.69,2.12,2.12,0,0,1,.67,1.61,2.24,2.24,0,0,1-1.6,2.17v0a2.13,2.13,0,0,1,1.25,1.71,12.85,12.85,0,0,0,.65,2.33h-1.13a10.85,10.85,0,0,1-.57-2c-.25-1.17-.7-1.61-1.7-1.65h-1v3.68h-1.1Zm1.1,3.86h1.12c1.17,0,1.91-.64,1.91-1.61s-.79-1.58-2-1.59a4.53,4.53,0,0,0-1.08.1Z"/><path class="cls-3" d="M146.8,108.66h1.1v7.57h3.62v.91H146.8Z"/><path class="cls-3" d="M168.83,116.77a8.1,8.1,0,0,1-2.61.46,4,4,0,0,1-4.35-4.28,4.25,4.25,0,0,1,4.59-4.38,5.42,5.42,0,0,1,2.12.39l-.27.9a4.24,4.24,0,0,0-1.87-.37A3.17,3.17,0,0,0,163,112.9a3.11,3.11,0,0,0,3.28,3.43,3.51,3.51,0,0,0,1.46-.23v-2.53H166v-.88h2.8Z"/><path class="cls-3" d="M154.67,108.59v5c0,1.9.85,2.71,2,2.71s2.07-.83,2.07-2.71v-5h1.1v5c0,2.6-1.37,3.67-3.21,3.67s-3-1-3-3.62v-5Z"/><path class="cls-3" d="M172,108.59v5c0,1.9.84,2.71,2,2.71s2.07-.83,2.07-2.71v-5h1.11v5c0,2.6-1.38,3.67-3.21,3.67s-3-1-3-3.62v-5Z"/></g></g></svg>