<svg xmlns="http://www.w3.org/2000/svg" viewBox="0 0 173.68 137.99"><defs><style>.cls-1,.cls-2{fill:#fff;}.cls-1{stroke:#fff;stroke-miterlimit:10;stroke-width:0.5px;}</style></defs><g id="katman_2" data-name="katman 2"><g id="www.VektorelCizim.net"><path class="cls-1" d="M132.27,46.55s-.69.67-1.09,1-.5.48-.51.89-.06.89.49.49a11.41,11.41,0,0,0,1.72-1.7c.05-.13.24-.38.06-.57s-.45-.37-.67-.12"/><path class="cls-1" d="M132.17,49.29s-.72.63-1.14,1-.51.45-.56.85-.11.89.45.52a10.08,10.08,0,0,0,1.83-1.6c.05-.12.25-.35.08-.55s-.43-.41-.66-.17"/><path class="cls-1" d="M131.92,52s-.76.59-1.19.88-.56.42-.62.82-.16.88.42.55c.29-.17.76-.5,1.17-.81a5.45,5.45,0,0,0,.75-.68c.06-.12.28-.34.12-.55s-.41-.43-.65-.21"/><path class="cls-1" d="M131.5,54.74l-.44.3c-.26.17-.56.37-.8.5-.46.26-.58.38-.67.78s-.2.87.39.57a11.82,11.82,0,0,0,2-1.36c.07-.12.29-.33.14-.55s-.39-.45-.64-.24"/><path class="cls-1" d="M130.92,57.42l-.45.28-.84.44c-.48.23-.6.35-.71.74s-.25.86.36.6a12.12,12.12,0,0,0,2.09-1.24c.08-.11.32-.31.18-.54s-.36-.47-.63-.28"/><path class="cls-1" d="M130.19,60.06s-.86.44-1.35.64-.62.32-.74.7-.33.83.31.62a11.71,11.71,0,0,0,2.16-1.12c.08-.11.33-.28.22-.52s-.32-.49-.6-.32"/><path class="cls-1" d="M129.28,62.65s-.88.39-1.37.56-.63.29-.8.65-.37.81.28.64a10.84,10.84,0,0,0,1.33-.51,5.51,5.51,0,0,0,.89-.47c.09-.11.35-.27.25-.51s-.29-.52-.58-.36"/><path class="cls-1" d="M128.22,65.19s-.89.33-1.39.48-.67.23-.85.59-.41.79.24.65a10.9,10.9,0,0,0,2.29-.84c.09-.1.36-.25.27-.5s-.27-.53-.56-.38"/><path class="cls-1" d="M127,67.65l-.51.16-.92.23c-.52.11-.67.19-.87.54s-.44.78.21.67a11.69,11.69,0,0,0,2.33-.7c.1-.09.38-.22.3-.48s-.24-.55-.54-.42"/><path class="cls-1" d="M125.66,70s-.94.22-1.46.3-.67.15-.89.49-.52.73.16.68a10.8,10.8,0,0,0,2.36-.57c.1-.08.39-.19.34-.45s-.2-.56-.51-.45"/><path class="cls-1" d="M124.15,72.33s-.94.17-1.46.22a1,1,0,0,0-.93.44c-.25.31-.55.7.12.68a11.08,11.08,0,0,0,1.41-.17,5.72,5.72,0,0,0,1-.25c.11-.08.41-.17.37-.43s-.17-.57-.49-.49"/><path class="cls-1" d="M122.52,74.54s-.94.11-1.47.13-.7.07-1,.37-.59.68.08.7a11.24,11.24,0,0,0,2.42-.27c.11-.08.41-.16.38-.42s-.13-.58-.45-.51"/><path class="cls-1" d="M120.76,76.64l-.54,0c-.3,0-.68,0-.94,0-.53,0-.7,0-1,.32s-.62.65,0,.7a12.19,12.19,0,0,0,2.43-.13c.12-.06.43-.12.41-.39s-.1-.59-.42-.54"/><path class="cls-1" d="M118.88,78.64s-1,0-1.49-.06-.69,0-1,.27-.67.59,0,.69a10.84,10.84,0,0,0,2.42,0c.13-.06.44-.1.44-.36s-.05-.59-.38-.56"/><path class="cls-1" d="M116.87,80.51s-1-.06-1.47-.14a1.09,1.09,0,0,0-1,.2c-.32.25-.7.55,0,.7.33.06.9.13,1.42.17a6.7,6.7,0,0,0,1,0c.13-.05.44-.07.46-.34s0-.59-.35-.58"/><path class="cls-1" d="M114.75,82.26s-.94-.11-1.45-.22-.7-.1-1,.13-.72.52-.08.7a11.77,11.77,0,0,0,2.41.31c.13-.05.44-.05.47-.32s0-.59-.32-.6"/><path class="cls-1" d="M112.54,83.89l-.53-.1-.91-.22c-.51-.14-.69-.14-1,.08s-.75.47-.12.69a12.21,12.21,0,0,0,2.38.45c.14,0,.45,0,.5-.28s0-.6-.29-.62"/><path class="cls-1" d="M110.24,85.37s-.93-.23-1.43-.41-.67-.17-1,0-.79.41-.18.67a9.92,9.92,0,0,0,2.36.59c.13,0,.44,0,.51-.24s.09-.58-.24-.64"/><path class="cls-1" d="M107.84,86.71s-.91-.29-1.39-.48a1.09,1.09,0,0,0-1,0c-.37.17-.81.37-.21.66a11.43,11.43,0,0,0,1.33.51,6,6,0,0,0,1,.23c.14,0,.44,0,.53-.22s.12-.58-.21-.65"/><path class="cls-1" d="M105.37,87.91s-.89-.33-1.36-.56-.65-.27-1-.12-.83.33-.25.65a11.13,11.13,0,0,0,2.27.88c.14,0,.44.06.54-.19s.15-.57-.17-.66"/><path class="cls-1" d="M102.84,89l-.5-.21-.83-.44c-.46-.26-.64-.3-1-.17s-.84.29-.28.64a11.54,11.54,0,0,0,2.2,1c.14,0,.44.09.55-.15s.19-.57-.12-.68"/><path class="cls-1" d="M100.24,89.85s-.85-.46-1.29-.74-.61-.34-1-.23-.87.21-.32.62a11.25,11.25,0,0,0,2.13,1.14c.14,0,.43.11.56-.12s.23-.54-.08-.67"/><path class="cls-1" d="M97.59,90.57s-.82-.5-1.24-.81a1.06,1.06,0,0,0-1-.29c-.4.07-.88.16-.37.59a11.17,11.17,0,0,0,1.18.81,5.28,5.28,0,0,0,.89.46c.14,0,.42.14.56-.08s.26-.53,0-.68"/><path class="cls-1" d="M94.91,91.13s-.79-.54-1.19-.87-.57-.41-1-.36-.88.11-.4.57a10.66,10.66,0,0,0,2,1.4c.14,0,.41.16.56-.05s.29-.52,0-.69"/><path class="cls-1" d="M92.19,91.54l-.42-.34a8.68,8.68,0,0,1-.71-.61c-.39-.37-.54-.45-1-.42s-.88.07-.43.55a11.82,11.82,0,0,0,1.9,1.53c.14,0,.4.18.57,0s.32-.51,0-.68"/><path class="cls-1" d="M89.46,91.78s-.18-.15-.4-.36-.49-.47-.68-.67c-.36-.38-.51-.47-.91-.46s-.9,0-.47.53a12.32,12.32,0,0,0,1.81,1.62c.13,0,.39.22.57,0s.34-.49.08-.68"/><path class="cls-1" d="M86.71,91.86s-.67-.69-1-1.1-.48-.49-.88-.5-.89-.07-.5.49A10.92,10.92,0,0,0,86,92.47c.12,0,.37.24.56.06s.38-.46.12-.67"/><path class="cls-1" d="M84,91.76S83.34,91,83,90.62s-.46-.51-.86-.56-.88-.11-.52.45a10.48,10.48,0,0,0,1.6,1.83c.12,0,.36.25.56.08s.4-.43.16-.66"/><path class="cls-1" d="M81.24,91.51s-.59-.76-.87-1.19-.43-.56-.82-.63-.88-.15-.55.43a10.58,10.58,0,0,0,.81,1.17,5.7,5.7,0,0,0,.67.75c.12.06.35.28.56.12s.43-.41.2-.65"/><path class="cls-1" d="M78.53,91.09l-.31-.45c-.16-.25-.36-.55-.49-.79-.26-.46-.39-.58-.78-.68s-.87-.2-.58.4a11.75,11.75,0,0,0,1.37,2c.12.06.33.29.55.14s.45-.39.24-.64"/><path class="cls-1" d="M75.84,90.51l-.27-.46c-.15-.27-.33-.59-.45-.83-.23-.48-.35-.61-.74-.72s-.85-.24-.6.37A12.52,12.52,0,0,0,75,91c.11.08.3.33.53.19s.48-.36.28-.63"/><path class="cls-1" d="M73.2,89.78s-.44-.86-.64-1.35-.31-.62-.7-.75-.83-.32-.61.32a11.2,11.2,0,0,0,1.11,2.16c.11.08.29.33.52.22s.5-.32.32-.6"/><path class="cls-1" d="M70.61,88.87s-.39-.88-.56-1.37-.28-.63-.65-.8-.81-.37-.63.28a10.59,10.59,0,0,0,.5,1.33,6.1,6.1,0,0,0,.48.89c.1.09.27.35.51.25s.51-.3.35-.58"/><path class="cls-1" d="M68.08,87.81s-.34-.89-.48-1.39-.23-.67-.59-.85-.8-.41-.66.24a10.8,10.8,0,0,0,.85,2.29c.09.09.24.36.49.27s.53-.27.39-.56"/><path class="cls-1" d="M65.61,86.6s-.06-.23-.15-.51-.18-.66-.23-.92c-.12-.51-.2-.67-.55-.87s-.77-.45-.67.21a12.79,12.79,0,0,0,.7,2.32c.09.11.23.38.48.31s.55-.24.42-.54"/><path class="cls-1" d="M63.23,85.25s-.22-.94-.3-1.46-.16-.68-.5-.89-.73-.52-.67.16a10.91,10.91,0,0,0,.56,2.36c.08.1.2.39.45.34s.56-.2.46-.51"/><path class="cls-1" d="M60.93,83.74s-.17-.94-.21-1.46a1.09,1.09,0,0,0-.44-.93c-.32-.25-.7-.55-.69.12a11.55,11.55,0,0,0,.18,1.41,5.17,5.17,0,0,0,.24,1c.08.11.18.41.44.36s.57-.16.48-.48"/><path class="cls-1" d="M58.73,82.11s-.12-1-.14-1.47-.06-.7-.37-1-.67-.59-.69.08a11.32,11.32,0,0,0,.27,2.42c.07.11.15.41.42.38s.58-.13.51-.45"/><path class="cls-1" d="M56.62,80.35s0-.24,0-.54,0-.68,0-.94c0-.53,0-.7-.33-1s-.64-.62-.7,0a12.19,12.19,0,0,0,.13,2.43c.06.12.13.42.39.41s.59-.1.54-.42"/><path class="cls-1" d="M54.63,78.46s0-1,0-1.48,0-.7-.27-1-.58-.67-.69,0a10.71,10.71,0,0,0,0,2.42c0,.12.09.43.36.44s.58,0,.56-.39"/><path class="cls-1" d="M52.76,76.46s.06-1,.13-1.48a1,1,0,0,0-.2-1c-.25-.32-.55-.71-.69,0a10.89,10.89,0,0,0-.17,1.41,5.73,5.73,0,0,0,0,1c0,.12.07.43.33.45s.59,0,.59-.35"/><path class="cls-1" d="M51,74.34s.11-.94.22-1.45.11-.7-.13-1-.52-.72-.69-.08a10.5,10.5,0,0,0-.31,2.41c0,.13,0,.44.31.47s.59,0,.6-.32"/><path class="cls-1" d="M49.38,72.13l.09-.53c.07-.3.16-.66.23-.91a1,1,0,0,0-.08-1c-.22-.33-.48-.75-.7-.12a13,13,0,0,0-.45,2.38c0,.14,0,.45.28.49s.6,0,.63-.28"/><path class="cls-1" d="M47.89,69.83s.24-.93.41-1.43a1,1,0,0,0,0-1c-.19-.36-.41-.8-.67-.18A11,11,0,0,0,47,69.56c0,.13,0,.44.24.51s.59.09.64-.24"/><path class="cls-1" d="M46.55,67.43s.29-.91.49-1.4a1,1,0,0,0,0-1c-.16-.37-.36-.81-.66-.21a10,10,0,0,0-.5,1.33,5.26,5.26,0,0,0-.24,1c0,.13,0,.44.22.52s.58.12.65-.2"/><path class="cls-1" d="M45.36,65s.33-.89.56-1.36a1,1,0,0,0,.12-1c-.15-.37-.33-.83-.66-.25a11.76,11.76,0,0,0-.88,2.27c0,.14,0,.44.19.53s.58.16.67-.16"/><path class="cls-1" d="M44.31,62.42l.22-.49c.13-.27.3-.6.43-.83.26-.46.3-.64.17-1s-.28-.84-.64-.29a12.56,12.56,0,0,0-1,2.21c0,.14-.09.44.15.55s.57.18.68-.13"/><path class="cls-1" d="M43.41,59.83s.46-.85.75-1.29.33-.61.22-1-.21-.87-.61-.33a11,11,0,0,0-1.14,2.14c0,.14-.12.43.11.56s.54.22.67-.08"/><path class="cls-1" d="M42.69,57.18s.51-.82.81-1.24a1,1,0,0,0,.29-1c-.07-.4-.16-.88-.59-.37a9.91,9.91,0,0,0-.8,1.18,5.72,5.72,0,0,0-.47.89c0,.13-.14.42.08.56s.54.26.68,0"/><path class="cls-1" d="M42.13,54.49s.54-.78.87-1.18.42-.57.36-1-.11-.88-.57-.4a10.66,10.66,0,0,0-1.4,2c0,.13-.16.41.06.56s.52.29.68,0"/><path class="cls-1" d="M41.73,51.78s.14-.19.33-.42a9,9,0,0,1,.62-.71c.36-.39.44-.54.41-.94s-.07-.9-.55-.44A12.22,12.22,0,0,0,41,51.17c0,.13-.18.4,0,.57s.5.31.68,0"/><path class="cls-1" d="M41.48,49.05l.36-.41.67-.67c.39-.36.47-.51.46-.91s0-.9-.53-.47a12.32,12.32,0,0,0-1.62,1.81c0,.13-.22.38,0,.56s.49.35.68.09"/><path class="cls-1" d="M41.41,46.3s.68-.67,1.09-1,.5-.48.51-.88.06-.9-.5-.5a11.89,11.89,0,0,0-1.72,1.71c0,.12-.23.37,0,.56s.45.38.67.12"/><path class="cls-1" d="M41.5,43.56s.72-.63,1.14-.94.52-.46.57-.86.11-.88-.46-.52a10.33,10.33,0,0,0-1.82,1.6c-.06.12-.26.36-.09.56s.43.4.66.16"/><path class="cls-1" d="M41.76,40.83s.75-.59,1.18-.88.56-.42.63-.81.16-.88-.43-.55A10.58,10.58,0,0,0,42,39.4a5,5,0,0,0-.75.67c-.06.12-.27.35-.11.56s.41.42.65.2"/><path class="cls-1" d="M42.17,38.12l.45-.31a7.74,7.74,0,0,1,.79-.49c.47-.27.59-.39.68-.78s.2-.87-.4-.58a11.19,11.19,0,0,0-2,1.37c-.07.11-.29.32-.14.54s.38.46.63.25"/><path class="cls-1" d="M42.75,35.43l.46-.27c.27-.16.6-.33.83-.45.48-.23.61-.35.72-.74s.24-.85-.37-.6a12.26,12.26,0,0,0-2.08,1.25c-.08.11-.33.3-.18.53s.36.48.62.28"/><path class="cls-1" d="M43.49,32.79s.86-.44,1.34-.64.62-.32.75-.7.32-.83-.32-.61A10.76,10.76,0,0,0,43.11,32c-.08.11-.34.29-.22.52s.32.5.6.32"/><path class="cls-1" d="M44.4,30.2s.87-.39,1.37-.56.62-.28.79-.65.37-.81-.28-.63a11.21,11.21,0,0,0-1.33.5,7.6,7.6,0,0,0-.89.48c-.09.1-.35.26-.24.51s.29.51.58.35"/><path class="cls-1" d="M45.46,27.67s.89-.34,1.39-.48.66-.23.85-.59.4-.8-.25-.66a11.36,11.36,0,0,0-2.28.84c-.1.1-.36.25-.27.5s.26.53.56.39"/><path class="cls-1" d="M46.66,25.2l.52-.16.91-.23c.52-.11.67-.19.88-.54s.44-.77-.21-.67a12.69,12.69,0,0,0-2.33.7c-.11.09-.38.23-.3.48s.23.55.53.42"/><path class="cls-1" d="M48,22.81s.94-.21,1.46-.29.68-.16.9-.5.51-.73-.16-.68a11.09,11.09,0,0,0-2.36.57c-.11.08-.4.2-.34.45s.19.56.5.45"/><path class="cls-1" d="M49.52,20.52s.94-.17,1.46-.22.68-.12.93-.43.55-.71-.12-.69a9.86,9.86,0,0,0-1.41.18,5.69,5.69,0,0,0-1,.24c-.11.08-.4.18-.36.44s.16.57.48.48"/><path class="cls-1" d="M51.16,18.32s.94-.12,1.46-.14a1,1,0,0,0,1-.37c.26-.3.58-.67-.09-.69a10.53,10.53,0,0,0-2.41.27c-.12.07-.41.15-.39.41s.13.58.46.52"/><path class="cls-1" d="M52.92,16.21l.53,0h.95c.53,0,.7,0,1-.32s.62-.64,0-.7a12.24,12.24,0,0,0-2.43.13c-.12.06-.42.12-.41.39s.1.59.43.54"/><path class="cls-1" d="M54.8,14.21s1,0,1.48.06.7,0,1-.27.68-.58,0-.69a10.24,10.24,0,0,0-2.43,0c-.12,0-.43.09-.44.36s.06.58.39.55"/><path class="cls-1" d="M56.81,12.34s.95.07,1.47.14a1.06,1.06,0,0,0,1-.2c.31-.25.7-.55,0-.69a10.68,10.68,0,0,0-1.41-.17,6.09,6.09,0,0,0-1,0c-.13.05-.43.08-.45.34s0,.59.35.58"/><path class="cls-1" d="M58.92,10.59s.94.11,1.46.22a1,1,0,0,0,1-.13c.33-.23.73-.52.09-.69a11.33,11.33,0,0,0-2.42-.32c-.12.05-.43.06-.47.32s0,.59.32.6"/><path class="cls-1" d="M61.13,9l.53.09c.3.07.66.15.92.23a1,1,0,0,0,1-.08c.34-.22.76-.48.13-.7a13.1,13.1,0,0,0-2.39-.45c-.13,0-.44,0-.49.28s0,.6.28.63"/><path class="cls-1" d="M63.44,7.48s.93.24,1.42.41a1,1,0,0,0,1,0c.35-.19.79-.41.17-.67a11,11,0,0,0-2.35-.59c-.14,0-.44,0-.51.24s-.09.58.24.64"/><path class="cls-1" d="M65.83,6.14s.91.29,1.4.48a1.06,1.06,0,0,0,1,0c.36-.16.81-.37.21-.66a10.19,10.19,0,0,0-1.34-.5,5.26,5.26,0,0,0-1-.24c-.13,0-.44,0-.52.22s-.12.58.2.65"/><path class="cls-1" d="M68.3,5s.89.33,1.36.56a1.07,1.07,0,0,0,1,.12c.37-.15.83-.33.25-.66a11.29,11.29,0,0,0-2.27-.88c-.13,0-.43,0-.53.19s-.15.58.16.67"/><path class="cls-1" d="M70.84,3.9l.49.22c.28.13.61.3.84.43.46.26.63.3,1,.17s.85-.28.29-.64a11.94,11.94,0,0,0-2.21-1c-.14,0-.43-.09-.54.15s-.19.57.12.68"/><path class="cls-1" d="M73.44,3s.84.46,1.28.75.62.33,1,.22.87-.21.33-.62a11.1,11.1,0,0,0-2.14-1.13c-.14,0-.43-.12-.56.11s-.22.54.09.67"/><path class="cls-1" d="M76.08,2.28s.82.5,1.24.81a1.05,1.05,0,0,0,1,.29c.39-.07.88-.16.36-.59A10,10,0,0,0,77.5,2a5.21,5.21,0,0,0-.9-.46c-.13,0-.41-.14-.56.08s-.25.54,0,.68"/><path class="cls-1" d="M78.77,1.72s.78.54,1.19.87.56.42,1,.36.89-.11.4-.57a10.66,10.66,0,0,0-2-1.4c-.13,0-.41-.16-.56.06s-.29.52,0,.68"/><path class="cls-1" d="M81.48,1.32l.43.33c.23.19.51.43.7.61.39.37.55.45,1,.42s.89-.07.43-.55A12.41,12.41,0,0,0,82.09.6c-.13,0-.4-.17-.56,0s-.32.51,0,.69"/><path class="cls-1" d="M84.22,1.07s.18.15.4.36.49.47.67.67c.36.38.52.47.92.46s.89,0,.46-.53A12.9,12.9,0,0,0,84.87.41c-.13,0-.39-.22-.57,0s-.35.49-.08.68"/><path class="cls-1" d="M87,1s.67.69,1,1.1.49.5.89.51.89.06.49-.5A11.42,11.42,0,0,0,87.65.38c-.13,0-.38-.23-.57,0S86.71.78,87,1"/><path class="cls-1" d="M89.7,1.09s.63.72,1,1.14.45.51.85.56.89.12.52-.45A10.52,10.52,0,0,0,90.43.51c-.13,0-.36-.25-.56-.08s-.41.43-.17.66"/><path class="cls-1" d="M92.44,1.35s.58.75.87,1.18.42.56.82.63.88.15.55-.43c-.17-.29-.5-.76-.81-1.17a5.45,5.45,0,0,0-.68-.75c-.12-.06-.34-.27-.55-.11s-.43.41-.2.65"/><path class="cls-1" d="M95.15,1.76l.3.45c.17.25.37.55.5.79.26.47.38.59.78.68s.87.2.57-.4a11.26,11.26,0,0,0-1.36-2c-.12-.07-.33-.29-.55-.15s-.45.39-.24.64"/><path class="cls-1" d="M97.83,2.34l.28.46c.15.27.33.6.44.83.23.48.35.61.74.72s.86.24.6-.37A12,12,0,0,0,98.65,1.9c-.11-.08-.31-.33-.54-.19s-.47.37-.28.63"/><path class="cls-1" d="M100.47,3.08s.44.85.64,1.34.32.62.7.75.83.32.62-.32a10.19,10.19,0,0,0-1.12-2.15c-.11-.09-.28-.34-.52-.23s-.49.33-.32.61"/><path class="cls-1" d="M103.06,4s.39.87.56,1.37.29.62.65.79.82.37.64-.28a11.5,11.5,0,0,0-.51-1.33,6.7,6.7,0,0,0-.47-.89c-.1-.09-.27-.35-.51-.25s-.52.3-.36.59"/><path class="cls-1" d="M105.6,5.05s.33.89.48,1.39.23.66.59.84.79.41.65-.24a10.77,10.77,0,0,0-.84-2.28c-.1-.1-.25-.36-.5-.27s-.53.26-.38.56"/><path class="cls-1" d="M108.06,6.25l.16.52c.08.29.17.65.23.91.11.52.19.67.54.87s.78.45.67-.21A11.35,11.35,0,0,0,109,6c-.09-.11-.22-.38-.48-.3s-.55.23-.42.53"/><path class="cls-1" d="M110.45,7.6s.22.94.3,1.46.16.68.49.9.73.51.68-.16a10.5,10.5,0,0,0-.57-2.36c-.08-.11-.19-.4-.45-.35s-.56.2-.45.51"/><path class="cls-1" d="M112.74,9.11s.17.94.22,1.46a1,1,0,0,0,.44.93c.31.25.7.55.68-.12a11.29,11.29,0,0,0-.17-1.41,6,6,0,0,0-.25-1c-.08-.11-.17-.4-.43-.36s-.57.16-.49.48"/><path class="cls-1" d="M115,10.75s.11.94.13,1.46.07.7.37,1,.68.59.7-.08a10.41,10.41,0,0,0-.28-2.41c-.07-.12-.15-.42-.41-.39s-.58.13-.51.46"/><path class="cls-1" d="M117.05,12.51s0,.23,0,.53,0,.68,0,1c0,.53,0,.69.32,1s.65.62.7,0a12.19,12.19,0,0,0-.13-2.43c-.06-.12-.12-.42-.39-.41s-.59.1-.54.43"/><path class="cls-1" d="M119.05,14.39s0,1-.06,1.48,0,.7.27,1,.59.67.69,0a10.34,10.34,0,0,0,0-2.43c-.06-.12-.1-.43-.36-.44s-.59.06-.56.39"/><path class="cls-1" d="M120.92,16.4s-.06,1-.14,1.47a1.09,1.09,0,0,0,.2,1c.25.31.55.7.7,0a12.69,12.69,0,0,0,.17-1.41,5.6,5.6,0,0,0,0-1c0-.13-.07-.43-.34-.46s-.59,0-.58.36"/><path class="cls-1" d="M122.67,18.51s-.11.94-.22,1.45-.1.7.13,1,.52.73.7.08a11.77,11.77,0,0,0,.31-2.41c0-.13,0-.43-.31-.47s-.6,0-.61.32"/><path class="cls-1" d="M124.3,20.72s0,.23-.1.53-.15.66-.22.92c-.14.51-.14.68.08,1s.47.76.69.13a11.67,11.67,0,0,0,.45-2.39c0-.13,0-.44-.28-.49s-.6-.05-.62.28"/><path class="cls-1" d="M125.79,23s-.24.93-.41,1.42-.18.68,0,1,.41.79.67.17a10.66,10.66,0,0,0,.6-2.35c0-.14,0-.45-.25-.52s-.58-.08-.63.25"/><path class="cls-1" d="M127.12,25.42s-.29.91-.48,1.4a1.09,1.09,0,0,0,0,1c.17.36.37.81.66.21a12.44,12.44,0,0,0,.51-1.34,5.79,5.79,0,0,0,.23-1c0-.13,0-.44-.22-.52s-.58-.12-.65.2"/><path class="cls-1" d="M128.32,27.89s-.33.89-.56,1.36-.27.65-.12,1,.33.83.65.25a10.7,10.7,0,0,0,.88-2.27c0-.13.06-.43-.19-.53s-.57-.15-.66.16"/><path class="cls-1" d="M129.37,30.43s-.1.21-.22.49-.31.61-.44.84c-.26.46-.3.63-.17,1s.29.85.64.29a11.57,11.57,0,0,0,1-2.21c0-.14.1-.44-.15-.54s-.57-.19-.67.12"/><path class="cls-1" d="M130.26,33s-.46.85-.74,1.29-.33.61-.22,1,.2.87.61.33a11,11,0,0,0,1.14-2.14c0-.14.11-.43-.11-.56s-.55-.22-.68.08"/><path class="cls-1" d="M131,35.67s-.5.82-.81,1.24a1.08,1.08,0,0,0-.29,1c.07.39.16.87.59.36a10.5,10.5,0,0,0,.81-1.17,6.11,6.11,0,0,0,.47-.9c0-.13.13-.42-.09-.56s-.53-.25-.68,0"/><path class="cls-1" d="M131.54,38.36s-.54.78-.87,1.18-.41.57-.36,1,.11.89.57.4a10.66,10.66,0,0,0,1.4-2c0-.13.16-.41-.05-.56s-.52-.29-.69,0"/><path class="cls-1" d="M132,41.07l-.34.42a7.27,7.27,0,0,1-.61.71c-.37.39-.45.55-.42.95s.07.89.56.43a12.22,12.22,0,0,0,1.52-1.9c0-.13.18-.4,0-.56s-.5-.32-.68,0"/><path class="cls-1" d="M132.19,43.81s-.15.18-.36.4-.47.49-.66.67c-.39.36-.48.51-.47.92s0,.89.53.46a11.75,11.75,0,0,0,1.62-1.81c0-.12.23-.38,0-.56s-.49-.35-.68-.08"/><polygon class="cls-2" points="100 77.63 100.21 80.42 97.63 81.48 100.34 82.14 100.55 84.93 102.02 82.55 104.73 83.22 102.92 81.08 104.39 78.71 101.81 79.77 100 77.63"/><polygon class="cls-2" points="86.97 80.25 86.13 82.92 83.34 82.95 85.61 84.57 84.78 87.23 87.02 85.57 89.3 87.19 88.41 84.54 90.65 82.88 87.86 82.91 86.97 80.25"/><polygon class="cls-2" points="100.52 7.68 100.3 10.46 97.58 11.11 100.16 12.18 99.93 14.97 101.75 12.85 104.33 13.92 102.88 11.54 104.69 9.42 101.98 10.06 100.52 7.68"/><polygon class="cls-2" points="114.27 15.85 113.05 18.36 110.28 17.99 112.3 19.92 111.09 22.43 113.55 21.11 115.57 23.04 115.07 20.29 117.53 18.97 114.77 18.59 114.27 15.85"/><polygon class="cls-2" points="122.17 56.94 121.06 59.51 118.28 59.26 120.38 61.1 119.28 63.67 121.68 62.24 123.78 64.08 123.17 61.35 125.56 59.92 122.78 59.67 122.17 56.94"/><polygon class="cls-2" points="115.4 69.6 113.44 71.59 110.94 70.34 112.23 72.82 110.26 74.81 113.02 74.35 114.3 76.83 114.72 74.07 117.48 73.62 114.98 72.36 115.4 69.6"/><polygon class="cls-2" points="123.78 28.75 121.64 30.54 119.27 29.06 120.32 31.65 118.17 33.45 120.96 33.25 122 35.85 122.68 33.13 125.47 32.94 123.1 31.46 123.78 28.75"/><polygon class="cls-2" points="123.39 42.8 123.41 45.59 120.76 46.48 123.43 47.32 123.45 50.12 125.07 47.84 127.74 48.69 126.08 46.44 127.7 44.16 125.05 45.05 123.39 42.8"/><polygon class="cls-2" points="89.14 5.52 88.34 8.2 90.64 9.79 87.85 9.85 87.05 12.53 86.12 9.89 83.33 9.96 85.55 8.27 84.62 5.63 86.92 7.22 89.14 5.52"/><polygon class="cls-2" points="73.44 7.68 73.67 10.46 76.39 11.11 73.81 12.18 74.03 14.97 72.22 12.85 69.64 13.92 71.09 11.54 69.27 9.42 71.99 10.06 73.44 7.68"/><polygon class="cls-2" points="59.7 15.85 60.91 18.36 63.68 17.99 61.66 19.92 62.88 22.43 60.41 21.11 58.4 23.04 58.9 20.29 56.44 18.97 59.2 18.59 59.7 15.85"/><polygon class="cls-2" points="51.8 56.94 52.9 59.51 55.69 59.26 53.58 61.1 54.68 63.67 52.28 62.24 50.18 64.08 50.8 61.35 48.4 59.92 51.18 59.67 51.8 56.94"/><polygon class="cls-2" points="58.56 69.6 60.53 71.59 63.02 70.34 61.74 72.82 63.7 74.81 60.95 74.35 59.66 76.83 59.24 74.07 56.49 73.62 58.98 72.36 58.56 69.6"/><polygon class="cls-2" points="73.96 77.63 73.75 80.42 76.34 81.48 73.63 82.14 73.42 84.93 71.95 82.55 69.24 83.22 71.04 81.08 69.57 78.71 72.16 79.77 73.96 77.63"/><polygon class="cls-2" points="50.18 28.75 52.33 30.54 54.69 29.06 53.65 31.65 55.79 33.45 53.01 33.25 51.97 35.85 51.28 33.13 48.5 32.94 50.86 31.46 50.18 28.75"/><polygon class="cls-2" points="50.58 42.8 50.55 45.59 53.2 46.48 50.54 47.32 50.52 50.12 48.89 47.84 46.23 48.69 47.89 46.44 46.27 44.16 48.91 45.05 50.58 42.8"/><path class="cls-2" d="M78.39,36.88A1.07,1.07,0,1,0,79.46,38,1.07,1.07,0,0,0,78.39,36.88Zm0,1.56a.49.49,0,0,1,0-1,.49.49,0,0,1,0,1Z"/><path class="cls-2" d="M95.14,36.88A1.07,1.07,0,1,0,96.22,38,1.07,1.07,0,0,0,95.14,36.88Zm0,1.56a.49.49,0,1,1,.49-.49A.49.49,0,0,1,95.14,38.44Z"/><path class="cls-2" d="M74.07,51.94h8.67a4.72,4.72,0,0,1-8.67,0Z"/><path class="cls-2" d="M90.77,51.94h8.67a4.72,4.72,0,0,1-8.67,0Z"/><polygon class="cls-2" points="78.04 38.88 78.74 38.88 81.74 51.76 81.14 51.76 78.57 40.25 78.25 40.25 75.71 51.77 75.05 51.77 78.04 38.88"/><polygon class="cls-2" points="94.8 38.88 95.49 38.88 98.5 51.76 97.9 51.76 95.33 40.25 95.01 40.25 92.47 51.77 91.8 51.77 94.8 38.88"/><path class="cls-2" d="M86.76,38.57l-.52.71V56.4H85.4v.53h.84V59.6a.85.85,0,0,0,.76.8h.72v-.46h-.34v-3h.79v-.59h-.83V39.26Z"/><path class="cls-2" d="M87,63.54v1.8a12.84,12.84,0,0,1,4.09-3.23c2.53-1.25,6.79-.63,8.18-.31a18,18,0,0,1,2.15.61l1.93-1.12a22.32,22.32,0,0,0-6.83-1.46,14.12,14.12,0,0,0-7.2,1.88A10.41,10.41,0,0,0,87,63.54Z"/><path class="cls-2" d="M87,62.89a13.91,13.91,0,0,1,4.4-3,15.05,15.05,0,0,1,7.79-1c1.4.12,1.92.19,1.92.19l1.35-.85a16.72,16.72,0,0,0-12,1.38,10.42,10.42,0,0,0-3.46,3Z"/><path class="cls-2" d="M88.3,60.44a14.12,14.12,0,0,1,6.31-3.26,20.18,20.18,0,0,1,5.42-.44l1.54-1.06a18.79,18.79,0,0,0-6.19.4A13.87,13.87,0,0,0,89.72,59,9.14,9.14,0,0,0,88.3,60.44Z"/><path class="cls-2" d="M87,63.54v1.8a13,13,0,0,0-4.1-3.23c-2.53-1.25-6.79-.63-8.18-.31a18,18,0,0,0-2.15.61l-1.93-1.12a22.32,22.32,0,0,1,6.83-1.46,14.09,14.09,0,0,1,7.2,1.88A10.65,10.65,0,0,1,87,63.54Z"/><path class="cls-2" d="M87,62.89a13.91,13.91,0,0,0-4.4-3,15.05,15.05,0,0,0-7.79-1c-1.4.12-1.92.19-1.92.19l-1.35-.85a16.72,16.72,0,0,1,12,1.38,10.42,10.42,0,0,1,3.46,3Z"/><path class="cls-2" d="M85.67,60.44a14.12,14.12,0,0,0-6.31-3.26A20.11,20.11,0,0,0,74,56.74L72.4,55.68a18.79,18.79,0,0,1,6.19.4A14,14,0,0,1,84.26,59,9.34,9.34,0,0,1,85.67,60.44Z"/><path class="cls-2" d="M81.81,31.11a3.83,3.83,0,0,1,7.06-2,3.06,3.06,0,1,0-2.28,5.1,3,3,0,0,0,2.28-1,3.83,3.83,0,0,1-7.06-2"/><polygon class="cls-2" points="92.25 29.99 90.93 30.42 90.11 29.29 90.11 30.68 88.79 31.11 90.11 31.54 90.11 32.93 90.93 31.81 92.25 32.23 91.43 31.11 92.25 29.99"/><path class="cls-2" d="M88.1,73.66A1.14,1.14,0,1,1,87,72.52,1.13,1.13,0,0,1,88.1,73.66Z"/><path class="cls-2" d="M71.58,70l.94.63-.45.67-2.68-1.81.44-.66,1,.64,1.9-2.83.79.53Z"/><path class="cls-2" d="M66.39,67.7a.42.42,0,0,1-.61,0,.43.43,0,1,1,.61,0Zm1.2.23,1.67-1.75c.5-.53.56-1,.21-1.32s-.81-.28-1.32.26l-1.67,1.75-.69-.65,1.63-1.71A1.64,1.64,0,0,1,70,64.33c.77.73.82,1.59-.11,2.56l-1.62,1.7Zm-.26.67a.43.43,0,0,1-.61,0,.43.43,0,0,1,.59-.63A.43.43,0,0,1,67.33,68.6Z"/><path class="cls-2" d="M64.7,64.86a8.63,8.63,0,0,1-.82-1,2.1,2.1,0,0,1-.54-1.29,1.05,1.05,0,0,1,.48-.84,1.11,1.11,0,0,1,1.27,0h0a1.06,1.06,0,0,1,.3-.92c.3-.38.66-.81.75-1l.58.79a6.66,6.66,0,0,1-.62.82c-.35.4-.36.63-.14.94l.17.23,1.33-1,.56.76ZM65.6,63l-.22-.3c-.28-.38-.64-.47-.94-.25s-.31.56-.06.91a2.62,2.62,0,0,0,.28.33Z"/><path class="cls-2" d="M62,61.12l-.43-.84,1.66-.85v0l-.54,0L61,59.15l-.53-1,2.23.43,1.49-2.41.5,1-1.15,1.75.56.12,1.22-.63.43.84Z"/><path class="cls-2" d="M59.46,57.14a.44.44,0,0,1-.56-.26.43.43,0,0,1,.81-.29A.43.43,0,0,1,59.46,57.14Zm.32-1.08,3.95-1.43.33.89L60.1,57Z"/><path class="cls-2" d="M63.18,52.78l-1.67.4L59.39,55,59.14,54l.89-.65.71-.5h0l-.85-.12-1.08-.19-.25-1,2.71.79,1.71-.4Z"/><path class="cls-2" d="M60.6,47.61l.14,1.54,1-.09-.15-1.72.78-.07L62.6,50l-4.19.37-.24-2.59.78-.07.15,1.64.87-.08-.14-1.54Z"/><path class="cls-2" d="M62.62,41.76a2.58,2.58,0,0,1,.06,1.09,2,2,0,0,1-2.35,1.95,2.15,2.15,0,0,1-1.95-2.55,2.52,2.52,0,0,1,.3-1l.73.29a2.11,2.11,0,0,0-.25.77,1.27,1.27,0,0,0,1.23,1.5,1.26,1.26,0,0,0,1.52-1.18,2.33,2.33,0,0,0,0-.81Z"/><path class="cls-2" d="M59.13,38.86l2.33.69c.69.21,1.12.05,1.26-.42s-.11-.84-.83-1.05l-2.32-.69.27-.91,2.26.67c1.25.37,1.66,1.17,1.34,2.23s-1,1.45-2.33,1.07l-2.25-.67Z"/><path class="cls-2" d="M64.45,32.84c-.45-.22-1-.49-1.54-.78v0c.41.36.86.8,1.22,1.18l1.21,1.22-.35.66-1.65-.37c-.5-.11-1.1-.27-1.63-.44h0c.49.29,1.06.61,1.51.89l1.37.81-.41.78-3.59-2.21.6-1.12,1.43.29c.49.12,1,.25,1.5.4v0c-.37-.33-.79-.72-1.14-1.06l-1-1.06L62.52,31l3.82,1.77-.43.82Z"/><path class="cls-2" d="M64.25,28.59l1.25,1,1-1.21-1.25-1,.61-.73,3.25,2.67-.61.74-1.36-1.12-1,1.21,1.36,1.12-.61.74-3.25-2.68Z"/><path class="cls-2" d="M67.81,24.78l1.57,1.85c.47.55.91.65,1.29.34s.36-.77-.12-1.34L69,23.78l.73-.61L71.23,25a1.65,1.65,0,0,1-.1,2.6c-.81.68-1.66.64-2.53-.38L67.08,25.4Z"/><path class="cls-2" d="M71.15,22.24a8.3,8.3,0,0,1,1-.73,2.13,2.13,0,0,1,1.34-.41,1.11,1.11,0,0,1,.78.56,1.13,1.13,0,0,1-.11,1.27v0a1,1,0,0,1,.88.39,12.13,12.13,0,0,0,.91.84l-.84.5a5.88,5.88,0,0,1-.76-.69c-.36-.4-.59-.43-.92-.24l-.25.15.84,1.42-.81.49Zm1.74,1.07.32-.19c.41-.24.53-.59.34-.91s-.52-.36-.9-.14a3,3,0,0,0-.36.24Z"/><path class="cls-2" d="M74.8,19.42a.42.42,0,0,1,.22-.57.42.42,0,0,1,.56.22.43.43,0,0,1-.78.35Zm1.09.24,1.7,3.85-.87.39L75,20.05Z"/><path class="cls-2" d="M79.4,22.84l-.51-1.65-2-2,1-.31.71.84c.21.25.36.44.54.67h0c0-.28,0-.54.06-.87l.11-1.09,1-.31-.6,2.75.52,1.68Z"/><path class="cls-2" d="M84.39,19.93l-1.53.24.15,1,1.71-.26.12.78-2.66.4-.63-4.16,2.57-.39.12.77-1.63.25.14.86,1.53-.23Z"/><path class="cls-2" d="M86.48,18.2l-1.13,0v-.8l3.24-.06v.8l-1.15,0,.06,3.41-1,0Z"/><path class="cls-2" d="M90.8,17.61l-.45,4.19-.95-.11.45-4.18ZM90,16.85a.43.43,0,1,1,.85.09.43.43,0,1,1-.85-.09Z"/><path class="cls-2" d="M94.19,21.47l-.61,1-.94-.29,2.48-3.64,1.19.37v4.4l-1-.3V21.83Zm1.23-.36v-.93c0-.26,0-.58,0-.84h0c-.13.22-.29.5-.43.72l-.5.78Z"/><path class="cls-2" d="M98.91,19.87a9.33,9.33,0,0,1,1.18.52,2.73,2.73,0,0,1,1.33,1.19,1.9,1.9,0,0,1-.1,1.74,2.17,2.17,0,0,1-1.41,1.19,3,3,0,0,1-2-.41,7.34,7.34,0,0,1-.93-.56Zm-.73,3.49a1.22,1.22,0,0,0,.28.17,1.3,1.3,0,0,0,1.94-.65,1.21,1.21,0,0,0-.55-1.8,2.44,2.44,0,0,0-.4-.16Z"/><path class="cls-2" d="M102.32,25.42l-.89.68-.79-.6,3.58-2.56,1,.76-1.53,4.13-.81-.62.4-1.06Zm1.28.08.34-.86c.09-.25.22-.54.32-.78h0c-.2.17-.44.38-.65.53l-.74.56Z"/><path class="cls-2" d="M107.27,25.48l.66.69-2.46,2.36,1.16,1.21-.58.55-1.82-1.9Z"/><path class="cls-2" d="M109.44,31.89l-.9-1.25-.81.58,1,1.4-.64.46-1.56-2.18L110,28.44l1.51,2.11-.63.46-1-1.34-.71.51.9,1.26Z"/><path class="cls-2" d="M112,33l-.52-1,.71-.37,1.48,2.88-.71.36-.52-1-3,1.56-.43-.85Z"/><path class="cls-2" d="M114.72,37.51a7.88,7.88,0,0,1,.39,1.17,2.28,2.28,0,0,1,.09,1.26.92.92,0,0,1-.67.7,1,1,0,0,1-1-.44h0a1.06,1.06,0,0,1-.79,1.07,1.12,1.12,0,0,1-1-.19,2.67,2.67,0,0,1-.79-1.5,6.71,6.71,0,0,1-.2-1Zm-3.13,1.8a3.7,3.7,0,0,0,.09.36c.11.41.36.74.79.63s.47-.52.35-1l-.08-.31Zm1.81-.48.08.3c.13.49.39.69.7.61s.4-.36.29-.77a3.27,3.27,0,0,0-.12-.39Z"/><path class="cls-2" d="M112.81,43.28l-1.11-.2-.09-1,4.31.89.11,1.25L112,45.92l-.09-1,1-.42Zm.8,1,.87-.35.79-.28h0l-.82-.12-.91-.17Z"/><path class="cls-2" d="M116.13,47l-.07.94-1.85-.13h0l.44.33,1.32,1-.09,1.17-1.68-1.52-2.52,1.28.08-1.11,1.89-.89-.41-.4-1.37-.1.07-.94Z"/><path class="cls-2" d="M112.36,52l-1-.55.24-1,3.77,2.27-.3,1.21-4.4.25.25-1,1.13-.05Zm.43,1.21.93,0h.84l-.74-.38-.8-.46Z"/><path class="cls-2" d="M110.43,54.9l3.84,1.73-.46,1L112,57.8a12,12,0,0,1-1.59,0h0a17.25,17.25,0,0,1,1.63.65l1.12.51-.36.79L109,58.07l.41-.91,1.85-.15a15,15,0,0,1,1.65,0v0c-.52-.21-1.07-.44-1.69-.72l-1.16-.53Z"/><path class="cls-2" d="M112,61.27l-.52.8-2.85-1.88-.92,1.39-.67-.44L108.46,59Z"/><path class="cls-2" d="M109.11,65.19l-3.24-2.69.61-.74,3.24,2.7Z"/><path class="cls-2" d="M102.76,65.84a4.37,4.37,0,0,1,.87-1.12,2.31,2.31,0,0,1,1.64-.75,2.07,2.07,0,0,1,1.47.72,2.18,2.18,0,0,1-.27,3.25,2.93,2.93,0,0,1-1,.64l-.37-.69a2.27,2.27,0,0,0,.84-.54,1.37,1.37,0,0,0-1.81-2.06,1.28,1.28,0,0,0-.3.37l.6.64.48-.44.5.55-1.15,1.06Zm4.85,2.4a.31.31,0,0,0-.46,0,.37.37,0,0,0-.1.48l-.35.33a.77.77,0,0,1,.11-1.18.76.76,0,0,1,1.18,0Z"/><path class="cls-2" d="M103.46,70.24,101,66.8l.78-.55,2.43,3.44Z"/><path class="cls-2" d="M87.17,14.8a31.58,31.58,0,1,0,31.58,31.58A31.58,31.58,0,0,0,87.17,14.8Zm0,62.77a31.19,31.19,0,1,1,31.19-31.19A31.2,31.2,0,0,1,87.17,77.57Z"/><path class="cls-2" d="M94.23,38.58A1.12,1.12,0,0,1,94,38a1.16,1.16,0,0,1,.17-.59H79.32a1.07,1.07,0,0,1,.17.59,1.05,1.05,0,0,1-.2.63Z"/><path class="cls-2" d="M75.14,103.7H71.53v-2.55H81.87v2.55H78.19v10.9h-3Z"/><path class="cls-2" d="M81.51,113a1.76,1.76,0,0,1,1.79-1.86A1.85,1.85,0,1,1,81.51,113Z"/><path class="cls-2" d="M96.9,114.22a8.69,8.69,0,0,1-3.46.58c-4.65,0-7-2.89-7-6.72,0-4.59,3.27-7.15,7.34-7.15a8,8,0,0,1,3.32.6L96.44,104a6.58,6.58,0,0,0-2.56-.5c-2.41,0-4.29,1.45-4.29,4.45a4,4,0,0,0,4.31,4.39,7.62,7.62,0,0,0,2.54-.44Z"/><path class="cls-2" d="M98.57,113a1.76,1.76,0,0,1,1.8-1.86,1.85,1.85,0,1,1-1.8,1.86Z"/><path class="cls-2" d="M4.11,134.22l-1,3.45H0l4.11-13.45h4l4.17,13.45H9l-1-3.45ZM7.52,132C7.07,130.4,6.36,128,6,126.5H6c-.33,1.55-1,3.91-1.42,5.45Z"/><path class="cls-2" d="M14.07,124.4c16.12-3.79,15.65,16.57,0,13.21Zm3.06,11c7.32,1.59,7.58-10.65,0-8.8Z"/><path class="cls-2" d="M30.78,134.22l-1,3.45H26.67l4.11-13.45h4l4.17,13.45H35.67l-1-3.45ZM34.19,132c-.45-1.55-1.16-3.91-1.51-5.45h0c-.33,1.55-1,3.91-1.42,5.45Z"/><path class="cls-2" d="M40.74,124.22h3v10.9h5.35v2.55h-8.4Z"/><path class="cls-2" d="M58.94,132H54v3.2h5.53v2.49H50.94V124.22h8.3v2.5H54v2.79h4.95Z"/><path class="cls-2" d="M64.29,126.78H60.68v-2.56H71v2.56H67.35v10.89H64.29Z"/><path class="cls-2" d="M76.67,124.4c1.73-.3,6.37-.62,7.9.48a3,3,0,0,1-.6,5.51v0c2.85.52,3.59,4.54,1.28,6.17-1,1.28-6.64,1.41-8.58,1Zm3,5.15c4.71.65,4.37-4.15,0-3.13Zm0,6c4.89.87,5.14-4.5,0-3.79Z"/><path class="cls-2" d="M91.78,134.22l-1,3.45H87.67l4.11-13.45h4l4.17,13.45H96.67l-1-3.45ZM95.19,132c-.46-1.55-1.16-3.91-1.52-5.45h0c-.32,1.55-1,3.91-1.41,5.45Z"/><path class="cls-2" d="M101.74,124.22h3v5.95h.06c.59-1.08,3.25-4.87,4-5.95h3.74L108.07,130l4.69,7.72H109.2l-3.29-5.8-1.16,1.41v4.39h-3Z"/><path class="cls-2" d="M117.39,134.22l-1,3.45h-3.15l4.11-13.45h4l4.17,13.45h-3.27l-1-3.45ZM120.8,132c-.46-1.55-1.16-3.91-1.52-5.45h0c-.32,1.55-1,3.91-1.41,5.45Z"/><path class="cls-2" d="M127.35,137.67V124.22h3.55a80.22,80.22,0,0,1,5,9.54H136a90.73,90.73,0,0,1-.26-9.54h2.79v13.45h-3.19c-1.54-2.83-4-7-5.21-9.94l-.06,0c.14,2.71.12,6.95.12,9.92Z"/><path class="cls-2" d="M141.12,124.22h3v10.9h5.35v2.55h-8.4Z"/><path class="cls-2" d="M154.37,124.22v13.45h-3.05V124.22Z"/><path class="cls-2" d="M168.25,137.05c-15.59,5.63-15.66-17.2-.44-12.31l-.64,2.44c-8.31-4-11,9.58-1.86,8v-2.82h-2.07V130h5ZM162,120.89c-.06,1.19,2.44,1.17,2.43,0H166c.35,3.3-5.95,3.3-5.59,0Z"/><path class="cls-2" d="M173.68,124.22v13.45h-3.06V124.22Z"/></g></g></svg>